<svg xmlns="http://www.w3.org/2000/svg" xmlns:xlink="http://www.w3.org/1999/xlink" width="528" zoomAndPan="magnify" viewBox="0 0 396 611.999999" height="816" preserveAspectRatio="xMidYMid meet" version="1.2"><defs><clipPath id="c69fe9afea"><path d="M 30 146.8125 L 370.628906 146.8125 L 370.628906 467.0625 L 30 467.0625 Z M 30 146.8125 "/></clipPath></defs><g id="674756b71b"><rect x="0" width="396" y="0" height="611.999999" style="fill:#ffffff;fill-opacity:1;stroke:none;"/><rect x="0" width="396" y="0" height="611.999999" style="fill:#ffffff;fill-opacity:1;stroke:none;"/><path style=" stroke:none;fill-rule:nonzero;fill:#40c8a0;fill-opacity:1;" d="M 320.378906 225.816406 C 330.511719 227.554688 337.429688 231.027344 337.429688 235.023438 C 337.429688 240.765625 323.160156 245.425781 305.578125 245.425781 C 292.964844 245.425781 282.054688 243.027344 276.898438 239.550781 C 274.859375 238.183594 273.71875 236.648438 273.71875 235.023438 C 273.71875 233.402344 274.859375 231.863281 276.898438 230.496094 C 279.863281 228.496094 284.730469 226.855469 290.722656 225.820312 C 290.304688 226.957031 289.777344 228.371094 289.285156 229.703125 C 288.933594 230.660156 289.074219 231.738281 289.65625 232.574219 C 290.242188 233.414062 291.195312 233.914062 292.214844 233.914062 L 318.882812 233.914062 C 319.902344 233.914062 320.863281 233.414062 321.449219 232.574219 C 322.03125 231.738281 322.171875 230.660156 321.8125 229.703125 C 321.324219 228.371094 320.792969 226.949219 320.378906 225.816406 Z M 320.378906 225.816406 "/><path style=" stroke:none;fill-rule:nonzero;fill:#40c8a0;fill-opacity:1;" d="M 153.164062 230.496094 L 276.898438 230.496094 C 274.859375 231.863281 273.71875 233.402344 273.71875 235.023438 C 273.71875 236.648438 274.859375 238.183594 276.898438 239.550781 L 153.164062 239.550781 C 155.199219 238.183594 156.339844 236.648438 156.339844 235.023438 C 156.339844 233.394531 155.199219 231.863281 153.164062 230.496094 Z M 153.164062 230.496094 "/><path style=" stroke:none;fill-rule:nonzero;fill:#40c8a0;fill-opacity:1;" d="M 153.164062 230.496094 C 155.199219 231.863281 156.339844 233.394531 156.339844 235.023438 C 156.339844 236.648438 155.199219 238.183594 153.164062 239.550781 C 150.789062 241.15625 147.1875 242.523438 142.757812 243.539062 C 137.996094 244.628906 132.273438 245.304688 126.09375 245.40625 C 125.5625 245.410156 125.027344 245.417969 124.480469 245.417969 C 106.886719 245.417969 92.625 240.765625 92.625 235.023438 C 92.625 229.28125 106.886719 224.625 124.480469 224.625 C 137.101562 224.625 148.003906 227.023438 153.164062 230.496094 Z M 153.164062 230.496094 "/><path style=" stroke:none;fill-rule:nonzero;fill:#40c8a0;fill-opacity:1;" d="M 142.757812 243.539062 L 249.601562 309.203125 C 245.925781 314.203125 246.054688 319.578125 249.277344 325.253906 L 126.09375 245.410156 L 126.09375 245.40625 C 132.273438 245.304688 137.996094 244.628906 142.757812 243.539062 Z M 142.757812 243.539062 "/><path style=" stroke:none;fill-rule:nonzero;fill:#40c8a0;fill-opacity:1;" d="M 346.210938 348.648438 C 357.632812 352.109375 364.785156 357.046875 364.785156 362.53125 C 364.785156 371.6875 344.84375 379.328125 318.390625 381.085938 C 314.636719 381.332031 310.757812 381.464844 306.78125 381.464844 C 304.453125 381.464844 302.15625 381.417969 299.902344 381.332031 C 297.960938 381.257812 296.042969 381.152344 294.160156 381.015625 C 286.230469 380.4375 278.898438 379.335938 272.554688 377.8125 C 258.144531 374.367188 248.777344 368.804688 248.777344 362.53125 C 248.777344 359.410156 251.101562 356.464844 255.203125 353.867188 L 322.675781 363.679688 Z M 346.210938 348.648438 "/><path style=" stroke:none;fill-rule:nonzero;fill:#40c8a0;fill-opacity:1;" d="M 299.902344 381.332031 L 169.363281 441.710938 C 170.566406 433.4375 170.046875 426.003906 168.859375 419.808594 L 272.554688 377.8125 C 278.898438 379.335938 286.226562 380.4375 294.160156 381.015625 C 296.042969 381.152344 297.960938 381.257812 299.902344 381.332031 Z M 299.902344 381.332031 "/><path style=" stroke:none;fill-rule:nonzero;fill:#b19fdf;fill-opacity:1;" d="M 326.527344 314.488281 L 367.835938 293.050781 C 356.644531 308.285156 364.300781 317.414062 364.300781 317.414062 L 322.992188 338.851562 C 316.785156 331.476562 316.914062 323.464844 326.527344 314.488281 Z M 326.527344 314.488281 "/><path style=" stroke:none;fill-rule:nonzero;fill:#b19fdf;fill-opacity:1;" d="M 322.992188 338.851562 L 364.300781 317.414062 C 357.09375 326.578125 355.382812 336.746094 361.152344 339.109375 L 346.210938 348.648438 L 322.675781 363.679688 C 316.46875 356.304688 313.371094 347.820312 322.992188 338.851562 Z M 322.992188 338.851562 "/><path style=" stroke:none;fill-rule:nonzero;fill:#b19fdf;fill-opacity:1;" d="M 255.203125 353.867188 L 247.832031 352.792969 C 241.171875 343.898438 241.503906 335.699219 251.367188 328.429688 L 322.992188 338.851562 C 313.371094 347.820312 316.46875 356.304688 322.675781 363.679688 Z M 255.203125 353.867188 "/><path style=" stroke:none;fill-rule:nonzero;fill:#b19fdf;fill-opacity:1;" d="M 254.90625 304.066406 L 326.527344 314.488281 C 316.914062 323.464844 316.785156 331.476562 322.992188 338.851562 L 251.367188 328.429688 C 250.5625 327.359375 249.867188 326.304688 249.277344 325.253906 C 246.054688 319.578125 245.925781 314.203125 249.601562 309.203125 C 250.886719 307.445312 252.644531 305.730469 254.90625 304.066406 Z M 254.90625 304.066406 "/><path style=" stroke:none;fill-rule:nonzero;fill:#3d4657;fill-opacity:1;" d="M 168.503906 206.941406 C 168.503906 209.933594 168.503906 213.554688 168.503906 213.554688 L 160.699219 213.554688 L 160.699219 206.941406 C 160.699219 205.90625 161.109375 204.917969 161.839844 204.179688 C 162.566406 203.449219 163.5625 203.039062 164.597656 203.039062 C 165.632812 203.039062 166.625 203.449219 167.363281 204.179688 C 168.089844 204.917969 168.503906 205.90625 168.503906 206.941406 Z M 168.503906 206.941406 "/><path style=" stroke:none;fill-rule:nonzero;fill:#3d4657;fill-opacity:1;" d="M 149.351562 192.527344 L 149.351562 204.03125 C 149.351562 205.660156 148.457031 207.152344 147.023438 207.910156 C 131.152344 216.347656 116.046875 216.273438 101.601562 207.949219 C 100.25 207.167969 99.40625 205.710938 99.40625 204.144531 C 99.40625 201.171875 99.40625 196.125 99.40625 192.527344 L 124.375 203.039062 Z M 149.351562 192.527344 "/><path style=" stroke:none;fill-rule:nonzero;fill:#3d4657;fill-opacity:1;" d="M 164.371094 186.203125 L 149.351562 192.527344 L 124.375 203.039062 L 99.40625 192.527344 L 84.160156 186.109375 L 124.375 169.1875 L 164.597656 186.109375 Z M 164.371094 186.203125 "/><path style=" stroke:none;fill-rule:nonzero;fill:#0093ec;fill-opacity:1;" d="M 367.835938 293.050781 L 326.527344 314.488281 L 254.90625 304.066406 L 312.230469 284.964844 Z M 367.835938 293.050781 "/><path style=" stroke:none;fill-rule:nonzero;fill:#f0c635;fill-opacity:1;" d="M 329.851562 178.386719 C 330.328125 180.132812 330.355469 181.90625 329.964844 183.625 C 329.785156 184.441406 329.507812 185.246094 329.132812 186.023438 C 328.589844 187.152344 327.859375 188.234375 326.945312 189.234375 C 324.0625 192.390625 319.613281 194.472656 314.652344 194.996094 C 314.539062 195.011719 314.417969 195.023438 314.304688 195.03125 C 311.375 195.324219 308.457031 195.421875 305.550781 195.335938 C 302.640625 195.421875 299.722656 195.324219 296.796875 195.03125 C 296.679688 195.023438 296.566406 195.011719 296.445312 194.996094 C 295.207031 194.863281 294 194.640625 292.847656 194.320312 C 292.261719 194.160156 291.699219 193.976562 291.140625 193.777344 C 290.3125 193.472656 289.511719 193.117188 288.753906 192.722656 C 286.984375 191.792969 285.417969 190.617188 284.160156 189.234375 C 283.613281 188.644531 283.144531 188.027344 282.734375 187.390625 C 282.222656 186.59375 281.8125 185.761719 281.507812 184.914062 C 281.484375 184.859375 281.464844 184.808594 281.453125 184.753906 C 281.359375 184.46875 281.273438 184.175781 281.195312 183.882812 C 281.195312 183.878906 281.195312 183.878906 281.195312 183.878906 C 280.863281 182.550781 280.785156 181.183594 280.960938 179.816406 C 281.027344 179.335938 281.121094 178.867188 281.253906 178.386719 C 281.4375 177.710938 281.617188 177.035156 281.785156 176.355469 C 283.476562 169.585938 284.246094 162.707031 283.277344 155.609375 L 283.269531 155.609375 C 283.222656 155.210938 283.164062 154.8125 283.089844 154.414062 C 282.984375 153.765625 282.863281 153.121094 282.730469 152.46875 C 282.519531 151.476562 282.28125 150.484375 281.996094 149.484375 L 329.105469 149.484375 C 328.523438 151.546875 328.105469 153.59375 327.828125 155.625 C 326.761719 163.425781 327.800781 170.964844 329.851562 178.386719 Z M 329.851562 178.386719 "/><path style=" stroke:none;fill-rule:nonzero;fill:#f0c635;fill-opacity:1;" d="M 320.378906 225.816406 C 320.792969 226.949219 321.324219 228.371094 321.8125 229.703125 C 322.171875 230.660156 322.03125 231.738281 321.449219 232.574219 C 320.863281 233.414062 319.902344 233.914062 318.882812 233.914062 L 292.214844 233.914062 C 291.195312 233.914062 290.238281 233.414062 289.65625 232.574219 C 289.074219 231.738281 288.933594 230.660156 289.285156 229.703125 C 289.773438 228.371094 290.304688 226.957031 290.722656 225.820312 C 291.195312 224.546875 291.53125 223.636719 291.53125 223.636719 L 319.570312 223.636719 C 319.570312 223.636719 319.902344 224.539062 320.378906 225.816406 Z M 320.378906 225.816406 "/><path style=" stroke:none;fill-rule:nonzero;fill:#f0c635;fill-opacity:1;" d="M 314.304688 195.03125 L 314.304688 201.027344 C 314.304688 203.03125 312.847656 204.695312 310.929688 205.007812 C 310.71875 205.042969 310.5 205.0625 310.273438 205.0625 L 300.824219 205.0625 C 300.597656 205.0625 300.378906 205.042969 300.167969 205.003906 C 298.257812 204.691406 296.796875 203.03125 296.796875 201.027344 L 296.796875 195.03125 C 299.722656 195.324219 302.640625 195.421875 305.550781 195.335938 C 308.457031 195.421875 311.375 195.324219 314.304688 195.03125 Z M 314.304688 195.03125 "/><path style=" stroke:none;fill-rule:nonzero;fill:#f0c635;fill-opacity:1;" d="M 313.324219 223.636719 L 297.773438 223.636719 C 299.617188 218.664062 300.613281 210.320312 300.160156 205.0625 L 300.167969 205.003906 C 300.378906 205.042969 300.597656 205.0625 300.824219 205.0625 L 310.273438 205.0625 C 310.5 205.0625 310.71875 205.042969 310.929688 205.007812 L 310.9375 205.0625 C 310.488281 210.320312 311.480469 218.664062 313.324219 223.636719 Z M 313.324219 223.636719 "/><path style=" stroke:none;fill-rule:nonzero;fill:#0093ec;fill-opacity:1;" d="M 135.84375 464.394531 L 41.726562 464.394531 C 23.441406 429.199219 41.726562 400.816406 41.726562 400.816406 C 45.128906 389.976562 65.402344 382.175781 77.210938 378.484375 L 101.828125 403.125 L 126.472656 378.449219 C 138.601562 382.3125 158.582031 390.175781 161.925781 400.816406 C 161.925781 400.816406 166.601562 408.078125 168.859375 419.808594 C 170.046875 426.003906 170.566406 433.4375 169.363281 441.710938 C 168.34375 448.746094 166.082031 456.394531 161.925781 464.394531 Z M 135.84375 464.394531 "/><path style=" stroke:none;fill-rule:nonzero;fill:#1f2c40;fill-opacity:1;" d="M 65.84375 307.863281 C 52.210938 295.214844 62.179688 267.824219 62.179688 267.824219 C 62.179688 267.824219 65.886719 274.464844 102.675781 265.0625 C 152.804688 252.257812 159.078125 301.507812 140.769531 319 C 128.292969 304.476562 96.714844 313.101562 96.714844 313.101562 C 80.945312 315.742188 71.421875 313.039062 65.84375 307.863281 Z M 65.84375 307.863281 "/><path style=" stroke:none;fill-rule:nonzero;fill:#f0a583;fill-opacity:1;" d="M 140.769531 319 C 140.769531 338.480469 129.507812 354.984375 114.015625 360.492188 C 113.839844 360.558594 113.660156 360.621094 113.472656 360.679688 C 110.050781 361.835938 106.425781 362.453125 102.679688 362.453125 C 97.730469 362.453125 93.003906 361.375 88.664062 359.417969 C 74.566406 353.046875 64.585938 337.335938 64.585938 319 C 64.585938 315.171875 65.015625 311.453125 65.832031 307.914062 C 65.832031 307.914062 65.839844 307.902344 65.847656 307.871094 L 65.847656 307.863281 C 71.421875 313.039062 80.945312 315.742188 96.714844 313.101562 C 96.714844 313.101562 128.296875 304.476562 140.769531 319 Z M 140.769531 319 "/><path style=" stroke:none;fill-rule:nonzero;fill:#f0a583;fill-opacity:1;" d="M 126.472656 378.453125 L 101.828125 403.128906 L 77.210938 378.484375 C 82.246094 376.90625 85.738281 376.074219 85.738281 376.074219 C 88.3125 373.757812 88.664062 359.417969 88.664062 359.417969 C 93 361.375 97.730469 362.453125 102.675781 362.453125 C 106.421875 362.453125 110.050781 361.835938 113.472656 360.679688 L 114.050781 361.257812 C 114.210938 364.066406 114.898438 373.789062 117.09375 375.769531 C 117.09375 375.769531 120.972656 376.699219 126.472656 378.453125 Z M 126.472656 378.453125 "/><path style=" stroke:none;fill-rule:nonzero;fill:#6fd7a3;fill-opacity:1;" d="M 273.082031 235.621094 C 271.046875 234.253906 269.90625 232.71875 269.90625 231.09375 C 269.90625 230.890625 269.925781 230.691406 269.960938 230.496094 L 153.164062 230.496094 C 155.199219 231.863281 156.339844 233.398438 156.339844 235.023438 C 156.339844 235.222656 156.324219 235.421875 156.289062 235.621094 Z M 273.082031 235.621094 "/><path style=" stroke:none;fill-rule:nonzero;fill:#dedbee;fill-opacity:1;" d="M 329.171875 325.417969 C 328.617188 322.835938 329.601562 319.664062 334.074219 315.300781 L 358.824219 302.453125 C 358.636719 305.230469 358.933594 307.664062 359.445312 309.707031 Z M 329.171875 325.417969 "/><path style=" stroke:none;fill-rule:nonzero;fill:#dedbee;fill-opacity:1;" d="M 328.152344 349.996094 C 326.058594 345.699219 327.386719 342.78125 330.542969 339.660156 L 354.746094 327.101562 C 354.636719 328.964844 354.789062 330.734375 355.21875 332.367188 C 355.246094 332.464844 355.269531 332.5625 355.300781 332.660156 Z M 328.152344 349.996094 "/><path style=" stroke:none;fill-rule:nonzero;fill:#dedbee;fill-opacity:1;" d="M 252.476562 345.847656 C 251.117188 343.550781 250.558594 341.53125 250.808594 339.832031 C 251.054688 338.144531 252.15625 336.398438 254.089844 334.617188 L 312.339844 343.09375 C 311.097656 346.367188 310.59375 350.171875 311.566406 354.441406 Z M 252.476562 345.847656 "/><path style=" stroke:none;fill-rule:nonzero;fill:#dedbee;fill-opacity:1;" d="M 256.015625 321.480469 C 255.960938 321.386719 255.90625 321.289062 255.851562 321.195312 C 253.316406 316.726562 254.300781 314.296875 255.742188 312.335938 C 256.246094 311.644531 256.878906 310.949219 257.632812 310.253906 L 315.160156 318.625 C 313.148438 322.652344 312.632812 326.40625 312.984375 329.769531 Z M 256.015625 321.480469 "/><path style=" stroke:none;fill-rule:nonzero;fill:#5d6266;fill-opacity:1;" d="M 168.503906 206.941406 C 168.503906 209.933594 168.503906 213.554688 168.503906 213.554688 L 160.699219 213.554688 L 160.699219 206.941406 C 160.699219 205.90625 161.109375 204.917969 161.839844 204.179688 C 162.566406 203.449219 163.5625 203.039062 164.597656 203.039062 C 165.632812 203.039062 166.625 203.449219 167.363281 204.179688 C 168.089844 204.917969 168.503906 205.90625 168.503906 206.941406 Z M 168.503906 206.941406 "/><path style=" stroke:none;fill-rule:nonzero;fill:#5d6266;fill-opacity:1;" d="M 84.160156 186.109375 L 134.734375 195.078125 L 116.167969 176.324219 L 124.375 169.1875 L 164.371094 186.203125 L 124.375 203.039062 Z M 84.160156 186.109375 "/><path style=" stroke:none;fill-rule:nonzero;fill:#01d0fb;fill-opacity:1;" d="M 338.878906 298.089844 L 312.230469 284.964844 L 367.835938 293.050781 L 325.6875 314.367188 Z M 338.878906 298.089844 "/><path style=" stroke:none;fill-rule:nonzero;fill:#ffbdae;fill-opacity:1;" d="M 100.140625 358.9375 C 95.929688 358.9375 91.824219 358.046875 87.941406 356.292969 C 74.898438 350.398438 66.132812 335.46875 66.132812 319.148438 C 66.132812 319 66.132812 318.847656 66.132812 318.699219 C 70.601562 320.265625 75.722656 321.054688 81.46875 321.054688 C 85.574219 321.054688 90.085938 320.648438 94.878906 319.847656 C 95.113281 319.804688 95.347656 319.753906 95.582031 319.691406 C 95.664062 319.671875 104.921875 317.199219 115.105469 317.199219 C 121.179688 317.199219 129.050781 318.09375 134.050781 322.074219 C 133.007812 338.253906 123.410156 352.464844 109.996094 357.234375 C 109.96875 357.246094 109.941406 357.257812 109.910156 357.265625 C 109.8125 357.304688 109.714844 357.335938 109.613281 357.367188 C 109.582031 357.378906 109.550781 357.386719 109.519531 357.398438 C 106.492188 358.421875 103.335938 358.9375 100.140625 358.9375 Z M 100.140625 358.9375 "/><path style=" stroke:none;fill-rule:nonzero;fill:#ffbdae;fill-opacity:1;" d="M 93.113281 381.734375 C 93.316406 381.589844 93.511719 381.429688 93.703125 381.261719 C 94.730469 380.335938 97.121094 378.183594 98.25 368.554688 C 100.859375 369.078125 103.515625 369.339844 106.203125 369.339844 C 108.019531 369.339844 109.824219 369.21875 111.613281 368.980469 C 112.839844 377.941406 115.023438 379.910156 116.183594 380.953125 C 116.578125 381.308594 117.007812 381.609375 117.46875 381.859375 L 105.355469 393.988281 Z M 93.113281 381.734375 "/><path style=" stroke:none;fill-rule:nonzero;fill:#5d6266;fill-opacity:1;" d="M 147.023438 207.910156 C 148.457031 207.152344 149.351562 205.660156 149.351562 204.03125 L 149.351562 192.535156 L 149.34375 192.53125 L 149.339844 192.53125 L 146.175781 199.890625 C 146.175781 199.890625 133.410156 208.4375 116 205.449219 L 116 213.457031 C 126.015625 215.40625 136.347656 213.585938 147.023438 207.910156 Z M 147.023438 207.910156 "/><path style=" stroke:none;fill-rule:nonzero;fill:#6fd7a3;fill-opacity:1;" d="M 153.164062 230.496094 C 148.882812 227.613281 140.640625 225.476562 130.746094 224.832031 C 118.117188 225.667969 108.707031 228.894531 108.707031 232.753906 C 108.707031 237.242188 121.472656 240.882812 137.222656 240.882812 C 143.171875 240.882812 148.699219 240.363281 153.269531 239.472656 C 155.234375 238.125 156.339844 236.621094 156.339844 235.023438 C 156.339844 233.394531 155.199219 231.863281 153.164062 230.496094 Z M 153.164062 230.496094 "/><path style=" stroke:none;fill-rule:nonzero;fill:#6fd7a3;fill-opacity:1;" d="M 142.757812 243.539062 C 140.960938 243.949219 139.027344 244.300781 136.984375 244.585938 L 246.917969 315.847656 C 247.152344 313.566406 248.023438 311.351562 249.601562 309.203125 Z M 142.757812 243.539062 "/><path style=" stroke:none;fill-rule:nonzero;fill:#6fd7a3;fill-opacity:1;" d="M 272.554688 377.8125 C 278.898438 379.335938 286.226562 380.4375 294.160156 381.015625 C 296.042969 381.152344 297.957031 381.257812 299.902344 381.332031 C 302.15625 381.417969 304.449219 381.464844 306.777344 381.464844 C 310.757812 381.464844 314.636719 381.332031 318.390625 381.085938 C 344.84375 379.328125 364.785156 371.6875 364.785156 362.53125 C 364.785156 357.046875 357.628906 352.109375 346.210938 348.648438 L 322.675781 363.679688 L 268.484375 376.746094 C 269.789062 377.121094 271.148438 377.476562 272.554688 377.8125 Z M 272.554688 377.8125 "/><path style=" stroke:none;fill-rule:nonzero;fill:#6fd7a3;fill-opacity:1;" d="M 272.902344 381.015625 C 270.617188 380.847656 268.390625 380.632812 266.214844 380.382812 L 168.859375 419.808594 C 169.539062 423.347656 169.996094 427.292969 170.042969 431.566406 L 278.644531 381.332031 C 276.703125 381.257812 274.785156 381.152344 272.902344 381.015625 Z M 272.902344 381.015625 "/><path style=" stroke:none;fill-rule:nonzero;fill:#6fd7a3;fill-opacity:1;" d="M 289.476562 229.183594 C 289.910156 228.007812 290.359375 226.808594 290.722656 225.820312 C 284.730469 226.855469 279.863281 228.496094 276.898438 230.496094 C 276.566406 230.71875 276.269531 230.945312 275.984375 231.175781 Z M 289.476562 229.183594 "/><path style=" stroke:none;fill-rule:nonzero;fill:#6fd7a3;fill-opacity:1;" d="M 337.429688 235.023438 C 337.429688 231.027344 330.511719 227.554688 320.378906 225.816406 C 320.792969 226.949219 321.324219 228.371094 321.8125 229.703125 C 322.171875 230.660156 322.03125 231.738281 321.449219 232.574219 C 320.933594 233.316406 320.121094 233.792969 319.230469 233.894531 L 285.796875 243.167969 C 291.234375 244.578125 298.101562 245.425781 305.578125 245.425781 C 323.160156 245.425781 337.429688 240.765625 337.429688 235.023438 Z M 337.429688 235.023438 "/><path style=" stroke:none;fill-rule:nonzero;fill:#ffd15b;fill-opacity:1;" d="M 308.648438 176.988281 C 294.058594 178.980469 288.058594 188.9375 297.773438 191.425781 C 307.441406 193.902344 320.339844 194.277344 326.40625 189.765625 C 326.585938 189.589844 326.777344 189.421875 326.945312 189.234375 C 327.863281 188.234375 328.589844 187.152344 329.132812 186.023438 C 329.507812 185.246094 329.785156 184.441406 329.964844 183.625 C 330.355469 181.90625 330.328125 180.132812 329.851562 178.386719 C 327.800781 170.964844 326.761719 163.425781 327.828125 155.625 C 328.105469 153.59375 328.523438 151.546875 329.109375 149.484375 L 281.996094 149.484375 C 281.996094 149.484375 292.167969 158.730469 305.550781 159.726562 C 318.929688 160.722656 323.238281 174.996094 308.648438 176.988281 Z M 308.648438 176.988281 "/><path style=" stroke:none;fill-rule:nonzero;fill:#ffd15b;fill-opacity:1;" d="M 314.304688 201.027344 L 314.304688 197.308594 C 312.398438 197.90625 309.230469 198.703125 305.546875 198.839844 C 300.519531 199.023438 299.257812 204.191406 306.003906 205.0625 L 310.273438 205.0625 C 310.5 205.0625 310.71875 205.042969 310.929688 205.007812 C 312.847656 204.695312 314.304688 203.03125 314.304688 201.027344 Z M 314.304688 201.027344 "/><path style=" stroke:none;fill-rule:nonzero;fill:#ffd15b;fill-opacity:1;" d="M 310.878906 209.886719 C 310.160156 210.222656 309.308594 210.511719 308.316406 210.679688 C 304.421875 211.34375 305.402344 215.65625 305.574219 219.390625 C 305.636719 220.742188 305.574219 222.363281 306.125 223.636719 L 313.324219 223.636719 C 311.980469 220.011719 311.089844 214.59375 310.878906 209.886719 Z M 310.878906 209.886719 "/><path style=" stroke:none;fill-rule:nonzero;fill:#ffd15b;fill-opacity:1;" d="M 320.378906 225.816406 C 319.902344 224.539062 319.570312 223.636719 319.570312 223.636719 L 291.53125 223.636719 C 295.554688 224.148438 312.046875 224.535156 299.613281 227.191406 C 287.179688 229.847656 311.964844 232.585938 321.984375 231.175781 C 322.046875 230.6875 321.992188 230.179688 321.8125 229.703125 C 321.324219 228.371094 320.792969 226.949219 320.378906 225.816406 Z M 320.378906 225.816406 "/><path style=" stroke:none;fill-rule:nonzero;fill:#37454f;fill-opacity:1;" d="M 102.675781 265.0625 C 65.886719 274.464844 62.179688 267.824219 62.179688 267.824219 C 64.605469 276.234375 86.867188 277.066406 102.675781 273.746094 C 118.488281 270.425781 138.679688 275.074219 140.769531 293.660156 C 137.222656 286.691406 122.132812 282.269531 108.703125 284.398438 C 132.746094 292.335938 141.035156 296.816406 141.53125 312.417969 C 132.578125 306.277344 116.621094 303.972656 102.632812 307.863281 C 126.941406 307.769531 138.015625 313.140625 140.769531 319 C 159.078125 301.507812 152.804688 252.257812 102.675781 265.0625 Z M 102.675781 265.0625 "/><path style=" stroke:none;fill-rule:nonzero;fill:#01d0fb;fill-opacity:1;" d="M 167.296875 416.742188 C 165.335938 406.566406 161.324219 400.125 161.296875 400.085938 C 160.976562 399.585938 160.722656 399.046875 160.546875 398.480469 C 159.320312 394.585938 151.398438 388.003906 133.214844 381.714844 L 111.464844 403.492188 C 110.222656 404.738281 108.535156 405.4375 106.777344 405.4375 C 105.019531 405.4375 103.332031 404.738281 102.085938 403.496094 L 80.347656 381.730469 C 62.179688 387.914062 54.242188 394.523438 53 398.480469 C 52.828125 399.027344 52.570312 399.578125 52.261719 400.0625 C 51.632812 401.0625 37.53125 423.984375 50.824219 453.429688 L 51.246094 453.429688 C 50.417969 442.363281 51.894531 429.292969 56.8125 417.570312 C 54.214844 430.046875 56.273438 444.019531 58.414062 453.429688 L 144.96875 453.429688 C 146.375 442.648438 147.054688 428.324219 145.675781 415.371094 C 153.3125 427.976562 153.234375 443.304688 151.992188 453.429688 L 162.722656 453.429688 C 165.230469 447.863281 166.917969 442.160156 167.75 436.429688 C 168.699219 429.886719 168.546875 423.261719 167.296875 416.742188 Z M 167.296875 416.742188 "/><path style=" stroke:none;fill-rule:nonzero;fill:#000863;fill-opacity:1;" d="M 159.953125 202.308594 C 158.722656 203.554688 158.042969 205.199219 158.042969 206.941406 L 158.042969 213.554688 C 158.042969 215.019531 159.234375 216.210938 160.699219 216.210938 L 168.503906 216.210938 C 169.96875 216.210938 171.15625 215.019531 171.15625 213.554688 L 171.15625 206.941406 C 171.15625 205.199219 170.476562 203.554688 169.230469 202.292969 C 168.589844 201.65625 167.839844 201.171875 167.023438 200.847656 L 167.023438 187.167969 C 167.164062 186.839844 167.25 186.488281 167.25 186.121094 C 167.253906 185.046875 166.613281 184.074219 165.625 183.660156 L 125.40625 166.738281 C 124.746094 166.460938 124.007812 166.460938 123.347656 166.738281 L 83.132812 183.660156 C 82.148438 184.074219 81.507812 185.039062 81.507812 186.109375 C 81.507812 187.175781 82.148438 188.140625 83.132812 188.554688 L 96.757812 194.289062 L 96.757812 204.144531 C 96.757812 206.652344 98.105469 208.992188 100.277344 210.25 C 107.921875 214.65625 115.78125 216.859375 123.800781 216.859375 C 131.8125 216.859375 139.988281 214.660156 148.261719 210.257812 C 150.570312 209.039062 152.003906 206.652344 152.003906 204.035156 L 152.003906 194.289062 L 161.71875 190.199219 L 161.71875 201.058594 C 161.070312 201.375 160.472656 201.792969 159.953125 202.308594 Z M 165.851562 210.898438 L 163.351562 210.898438 L 163.351562 206.941406 C 163.351562 206.609375 163.480469 206.289062 163.714844 206.054688 C 164.175781 205.59375 165.039062 205.609375 165.476562 206.046875 C 165.71875 206.289062 165.851562 206.609375 165.851562 206.941406 Z M 124.375 172.066406 L 151.4375 183.453125 L 124.375 183.453125 C 122.910156 183.453125 121.722656 184.640625 121.722656 186.109375 C 121.722656 187.574219 122.910156 188.765625 124.375 188.765625 L 151.441406 188.765625 L 124.375 200.15625 L 91.003906 186.109375 Z M 146.699219 204.03125 C 146.699219 204.679688 146.347656 205.265625 145.777344 205.566406 C 130.730469 213.566406 116.714844 213.59375 102.929688 205.652344 C 102.394531 205.339844 102.058594 204.761719 102.058594 204.144531 L 102.058594 196.523438 L 123.347656 205.484375 C 123.675781 205.625 124.027344 205.695312 124.375 205.695312 C 124.726562 205.695312 125.074219 205.625 125.402344 205.484375 L 146.699219 196.523438 Z M 146.699219 204.03125 "/><g clip-rule="nonzero" clip-path="url(#c69fe9afea)"><path style=" stroke:none;fill-rule:nonzero;fill:#000863;fill-opacity:1;" d="M 370.4375 292.636719 C 370.34375 291.976562 370.007812 291.355469 369.4375 290.953125 C 369.117188 290.726562 368.628906 290.421875 368.21875 290.421875 L 312.613281 282.335938 C 312.582031 282.332031 312.554688 282.335938 312.527344 282.332031 C 312.4375 282.324219 312.347656 282.324219 312.257812 282.320312 C 312.167969 282.320312 312.074219 282.320312 311.984375 282.328125 C 311.917969 282.332031 311.847656 282.347656 311.777344 282.359375 C 311.667969 282.378906 311.5625 282.398438 311.457031 282.429688 C 311.4375 282.4375 311.414062 282.4375 311.394531 282.445312 L 254.070312 301.546875 C 254.019531 301.5625 253.976562 301.589844 253.925781 301.609375 C 253.84375 301.640625 253.765625 301.675781 253.6875 301.71875 C 253.605469 301.761719 253.527344 301.808594 253.453125 301.855469 C 253.414062 301.882812 253.371094 301.898438 253.335938 301.925781 C 251.675781 303.148438 250.242188 304.425781 249.03125 305.738281 L 149.238281 244.40625 C 151.039062 243.746094 152.605469 243.011719 153.925781 242.207031 L 276.144531 242.207031 C 282.136719 245.839844 293.269531 248.082031 305.578125 248.082031 C 322.726562 248.082031 340.082031 243.59375 340.082031 235.023438 C 340.082031 229.835938 333.640625 225.664062 322.339844 223.476562 C 322.167969 223.007812 322.0625 222.722656 322.0625 222.722656 C 321.675781 221.675781 320.683594 220.980469 319.570312 220.980469 L 315.25 220.980469 C 314.097656 216.941406 313.382812 211.222656 313.496094 206.890625 C 315.585938 205.75 316.957031 203.542969 316.957031 201.027344 L 316.957031 197.339844 C 321.675781 196.449219 325.90625 194.242188 328.804688 191.128906 C 329.136719 191.425781 329.488281 191.699219 329.878906 191.925781 C 330.582031 192.332031 331.714844 192.792969 333.21875 192.792969 C 334.460938 192.792969 335.953125 192.476562 337.664062 191.550781 C 338.953125 190.851562 339.429688 189.242188 338.734375 187.949219 C 338.035156 186.660156 336.425781 186.179688 335.136719 186.878906 C 334.03125 187.480469 333.078125 187.640625 332.523438 187.324219 C 332.183594 187.125 331.972656 186.757812 331.867188 186.394531 C 332.054688 185.929688 332.21875 185.457031 332.355469 184.984375 C 332.761719 184.574219 333.183594 184.15625 333.617188 183.722656 C 341.019531 176.355469 352.203125 165.226562 344.007812 154.5625 C 340.949219 150.589844 336.304688 149.304688 331.507812 150.773438 C 331.558594 150.585938 331.605469 150.394531 331.660156 150.207031 C 331.886719 149.40625 331.722656 148.546875 331.222656 147.882812 C 330.722656 147.21875 329.9375 146.828125 329.105469 146.828125 L 305.550781 146.828125 C 305.550781 146.828125 282.003906 146.828125 281.996094 146.828125 C 281.417969 146.828125 280.71875 147.078125 280.28125 147.453125 C 279.816406 147.851562 279.480469 148.414062 279.398438 149.023438 C 279.347656 149.402344 279.335938 149.824219 279.441406 150.195312 C 279.492188 150.386719 279.539062 150.578125 279.589844 150.769531 C 274.796875 149.308594 270.160156 150.59375 267.109375 154.5625 C 258.679688 165.527344 271.097656 178.070312 278.519531 185.5625 C 278.621094 185.667969 278.726562 185.769531 278.828125 185.875 C 278.996094 186.042969 279.109375 186.179688 279.222656 186.386719 C 279.28125 186.492188 279.339844 186.59375 279.390625 186.703125 C 279.476562 186.898438 279.527344 187.109375 279.359375 187.273438 C 279.050781 187.578125 278.546875 187.648438 278.136719 187.609375 C 277.683594 187.566406 277.234375 187.445312 276.8125 187.277344 C 276.527344 187.160156 276.246094 187.027344 275.976562 186.878906 C 274.691406 186.183594 273.078125 186.660156 272.382812 187.949219 C 271.683594 189.238281 272.164062 190.851562 273.449219 191.550781 C 275.34375 192.578125 276.976562 192.933594 278.324219 192.933594 C 280.023438 192.933594 281.273438 192.367188 282.035156 191.882812 C 282.242188 191.75 282.4375 191.601562 282.625 191.449219 C 284 192.859375 285.636719 194.082031 287.519531 195.070312 C 288.359375 195.515625 289.269531 195.917969 290.25 196.277344 C 290.871094 196.5 291.503906 196.707031 292.140625 196.882812 C 292.792969 197.0625 293.460938 197.214844 294.144531 197.34375 L 294.144531 201.027344 C 294.144531 203.546875 295.527344 205.757812 297.601562 206.894531 C 297.714844 211.222656 297 216.941406 295.847656 220.980469 L 291.53125 220.980469 C 290.425781 220.980469 289.433594 221.671875 289.046875 222.710938 L 288.761719 223.484375 C 283.464844 224.519531 279.136719 226.007812 276.125 227.839844 L 153.914062 227.839844 C 147.917969 224.210938 136.785156 221.972656 124.480469 221.972656 C 107.332031 221.972656 89.972656 226.457031 89.972656 235.023438 C 89.972656 243.59375 107.332031 248.074219 124.480469 248.074219 C 124.757812 248.074219 125.03125 248.074219 125.3125 248.070312 L 247.308594 327.144531 C 247.457031 327.394531 247.613281 327.648438 247.777344 327.902344 C 243.765625 331.359375 241.429688 335.175781 240.824219 339.273438 C 240.121094 344.035156 241.765625 349.117188 245.707031 354.386719 C 246.128906 354.949219 246.753906 355.320312 247.449219 355.421875 L 248.972656 355.644531 C 246.722656 358.25 246.125 360.695312 246.125 362.535156 C 246.125 368.839844 252.542969 374.3125 264.382812 378.261719 L 170.777344 416.171875 C 168.578125 407.054688 165.195312 401.089844 164.34375 399.6875 C 160.550781 388.605469 142.136719 380.65625 127.277344 375.921875 C 123.277344 374.648438 120.152344 373.808594 118.664062 373.425781 C 118.0625 372.15625 117.199219 368.515625 116.773438 362.269531 C 132.484375 355.742188 143.003906 339.152344 143.402344 320.121094 C 152.574219 310.59375 155.496094 293.773438 150.15625 280.429688 C 145.039062 267.644531 133.316406 260.308594 117.996094 260.308594 C 113.0625 260.308594 107.6875 261.042969 102.023438 262.488281 C 89.15625 265.777344 79.015625 267.445312 71.886719 267.445312 C 66.300781 267.445312 64.546875 266.386719 64.265625 266.1875 C 63.726562 265.492188 62.863281 265.109375 61.96875 265.179688 C 60.933594 265.261719 60.042969 265.941406 59.6875 266.917969 C 59.265625 268.070312 49.800781 294.683594 62.949219 308.714844 C 62.273438 312.066406 61.933594 315.519531 61.933594 319.003906 C 61.933594 337.316406 71.304688 353.609375 85.953125 361.058594 C 85.707031 366.613281 84.941406 371.976562 84.144531 373.738281 C 82.75 374.09375 79.972656 374.835938 76.421875 375.949219 C 61.5625 380.59375 43.136719 388.46875 39.304688 399.6875 C 38.375 401.226562 34.386719 408.242188 32.269531 418.890625 C 30.101562 429.796875 29.574219 446.753906 39.375 465.621094 C 39.675781 466.203125 40.25 466.695312 40.867188 466.898438 C 41.148438 466.992188 41.441406 467.054688 41.738281 467.050781 C 41.738281 467.050781 66.984375 467.050781 67 467.050781 C 67 467.050781 135.835938 467.050781 135.851562 467.050781 C 135.851562 467.050781 161.910156 467.050781 161.921875 467.054688 C 162.855469 467.105469 163.855469 466.4375 164.277344 465.625 C 167.996094 458.46875 170.496094 451.042969 171.75 443.535156 L 300.449219 384.003906 C 302.5625 384.078125 304.6875 384.121094 306.78125 384.121094 C 310.703125 384.121094 314.667969 383.992188 318.566406 383.738281 C 342.894531 382.121094 367.441406 374.9375 367.441406 362.535156 C 367.441406 356.789062 362.222656 351.792969 352.277344 347.929688 L 362.578125 341.351562 C 363.414062 340.816406 363.882812 339.863281 363.792969 338.875 C 363.707031 337.886719 363.074219 337.03125 362.15625 336.65625 C 361.632812 336.441406 360.898438 336 360.542969 334.648438 C 359.765625 331.703125 361.265625 325.570312 366.386719 319.0625 C 366.949219 318.34375 367.105469 317.328125 366.773438 316.476562 C 366.667969 316.214844 366.53125 315.953125 366.351562 315.734375 C 366.101562 315.417969 360.273438 307.828125 369.972656 294.628906 C 369.976562 294.621094 369.980469 294.617188 369.984375 294.609375 C 370.390625 294.035156 370.539062 293.3125 370.4375 292.636719 Z M 360.621094 316.335938 L 323.738281 335.476562 C 320.648438 331.046875 319.257812 325.046875 328.089844 316.667969 L 361.046875 299.566406 C 357.828125 307.359375 359.191406 313.148438 360.621094 316.335938 Z M 317.632812 335.386719 L 252.855469 325.960938 C 252.382812 325.28125 251.957031 324.605469 251.582031 323.945312 C 248.75 318.957031 248.800781 314.773438 251.742188 310.773438 C 252.710938 309.449219 254.015625 308.132812 255.628906 306.855469 L 321.105469 316.382812 C 315.125 323.746094 315.292969 330.246094 317.632812 335.386719 Z M 142.273438 246.355469 L 245.953125 310.078125 C 244.523438 312.859375 243.980469 315.820312 244.328125 318.886719 L 134.3125 247.578125 C 137.109375 247.289062 139.78125 246.882812 142.273438 246.355469 Z M 326.066406 311.738281 L 266.359375 303.046875 L 312.472656 287.683594 L 359.296875 294.492188 Z M 158.699219 236.894531 C 158.917969 236.207031 158.992188 235.574219 158.992188 235.023438 C 158.992188 234.472656 158.917969 233.835938 158.699219 233.148438 L 271.363281 233.148438 C 271.144531 233.835938 271.070312 234.472656 271.070312 235.023438 C 271.070312 235.574219 271.144531 236.207031 271.363281 236.894531 Z M 334.777344 235.023438 C 334.777344 237.652344 324.472656 242.769531 305.578125 242.769531 C 293.941406 242.769531 283.265625 240.640625 278.375 237.34375 C 277.121094 236.503906 276.375 235.636719 276.375 235.023438 C 276.375 234.550781 276.898438 233.691406 278.378906 232.699219 C 278.378906 232.699219 278.378906 232.695312 278.378906 232.695312 C 280.257812 231.433594 283.101562 230.304688 286.609375 229.40625 C 286.214844 231.011719 286.523438 232.71875 287.476562 234.085938 C 288.550781 235.640625 290.324219 236.570312 292.214844 236.570312 L 318.882812 236.570312 C 320.777344 236.570312 322.550781 235.640625 323.621094 234.09375 C 324.585938 232.714844 324.890625 231 324.488281 229.402344 C 331.472656 231.191406 334.777344 233.660156 334.777344 235.023438 Z M 300.824219 202.40625 C 300.761719 202.40625 300.707031 202.402344 300.59375 202.382812 C 299.933594 202.273438 299.449219 201.703125 299.449219 201.027344 L 299.449219 197.898438 C 300.8125 197.976562 302.179688 198.023438 303.546875 198.023438 C 304.21875 198.023438 304.886719 198.011719 305.550781 197.992188 C 306.21875 198.011719 306.882812 198.023438 307.550781 198.023438 C 308.917969 198.023438 310.289062 197.976562 311.652344 197.898438 L 311.652344 201.027344 C 311.652344 201.695312 311.160156 202.28125 310.523438 202.382812 C 310.429688 202.398438 310.347656 202.40625 310.273438 202.40625 Z M 339.804688 157.800781 C 344.25 163.582031 339.433594 170.152344 332.347656 177.457031 C 330.28125 169.890625 329.628906 163.394531 330.316406 157.140625 C 332.476562 155.785156 336.792969 153.886719 339.804688 157.800781 Z M 271.3125 157.800781 C 274.308594 153.90625 278.601562 155.769531 280.765625 157.117188 C 281.386719 162.820312 280.890625 168.886719 279.230469 175.632812 C 279.222656 175.660156 279.21875 175.6875 279.210938 175.714844 C 279.210938 175.71875 279.210938 175.722656 279.207031 175.726562 C 279.046875 176.378906 278.875 177.035156 278.699219 177.675781 C 278.667969 177.789062 278.644531 177.902344 278.617188 178.015625 C 271.875 170.765625 266.917969 163.519531 271.3125 157.800781 Z M 284.960938 185.949219 C 284.773438 185.65625 284.605469 185.355469 284.453125 185.054688 C 284.433594 185.011719 284.414062 184.96875 284.390625 184.925781 C 284.246094 184.625 284.113281 184.320312 284.003906 184.015625 C 284 184.011719 283.996094 184.003906 283.996094 183.996094 C 283.988281 183.976562 283.980469 183.953125 283.972656 183.933594 C 283.972656 183.933594 283.972656 183.929688 283.972656 183.929688 C 283.898438 183.703125 283.832031 183.46875 283.765625 183.238281 C 283.765625 183.238281 283.765625 183.234375 283.765625 183.234375 C 283.515625 182.230469 283.457031 181.199219 283.589844 180.167969 C 283.644531 179.789062 283.714844 179.4375 283.8125 179.089844 C 284.003906 178.390625 284.1875 177.691406 284.359375 176.996094 C 284.367188 176.960938 284.371094 176.929688 284.382812 176.894531 C 286.324219 169.070312 286.824219 161.988281 285.902344 155.253906 C 285.898438 155.226562 285.890625 155.207031 285.886719 155.183594 C 285.832031 154.78125 285.773438 154.382812 285.707031 153.988281 C 285.707031 153.976562 285.703125 153.960938 285.699219 153.949219 C 285.699219 153.945312 285.699219 153.941406 285.699219 153.9375 C 285.699219 153.933594 285.699219 153.933594 285.695312 153.933594 C 285.601562 153.339844 285.492188 152.75 285.371094 152.140625 L 325.734375 152.140625 C 325.523438 153.164062 325.347656 154.195312 325.203125 155.230469 C 325.203125 155.234375 325.203125 155.238281 325.203125 155.238281 C 325.203125 155.25 325.199219 155.257812 325.199219 155.265625 C 324.183594 162.675781 324.851562 170.246094 327.289062 179.089844 C 327.648438 180.390625 327.675781 181.71875 327.371094 183.058594 C 327.238281 183.671875 327.023438 184.28125 326.742188 184.871094 C 326.304688 185.785156 325.710938 186.648438 324.988281 187.441406 C 322.546875 190.109375 318.679688 191.902344 314.339844 192.359375 C 314.277344 192.367188 314.207031 192.375 314.144531 192.382812 C 314.109375 192.382812 314.074219 192.386719 314.042969 192.390625 C 311.253906 192.667969 308.425781 192.765625 305.628906 192.683594 C 305.617188 192.683594 305.605469 192.683594 305.589844 192.683594 C 305.578125 192.683594 305.566406 192.679688 305.550781 192.679688 C 305.523438 192.679688 305.5 192.679688 305.472656 192.683594 C 302.667969 192.765625 299.839844 192.667969 297.058594 192.390625 C 297.023438 192.386719 296.984375 192.382812 296.945312 192.378906 C 296.886719 192.375 296.832031 192.371094 296.726562 192.359375 C 295.625 192.238281 294.554688 192.039062 293.542969 191.757812 C 293.085938 191.636719 292.609375 191.480469 292.054688 191.285156 C 291.320312 191.011719 290.621094 190.707031 289.984375 190.371094 C 288.453125 189.566406 287.152344 188.582031 286.105469 187.4375 C 285.695312 186.984375 285.3125 186.488281 284.960938 185.949219 Z M 302.917969 207.71875 L 308.179688 207.71875 C 308.164062 211.9375 308.761719 216.902344 309.765625 220.980469 L 301.332031 220.980469 C 302.335938 216.902344 302.933594 211.9375 302.917969 207.71875 Z M 297.765625 226.292969 C 297.769531 226.292969 297.769531 226.292969 297.773438 226.292969 C 297.777344 226.292969 297.777344 226.292969 297.78125 226.292969 L 313.316406 226.292969 C 313.320312 226.292969 313.324219 226.292969 313.324219 226.292969 C 313.328125 226.292969 313.332031 226.292969 313.332031 226.292969 L 317.726562 226.292969 C 317.777344 226.425781 317.832031 226.566406 317.882812 226.710938 C 317.894531 226.738281 317.902344 226.765625 317.914062 226.792969 C 318.167969 227.488281 318.460938 228.289062 318.765625 229.109375 L 319.332031 230.636719 C 319.378906 230.773438 319.359375 230.929688 319.269531 231.058594 C 319.183594 231.183594 319.039062 231.257812 318.882812 231.257812 L 292.21875 231.257812 C 292.0625 231.257812 291.925781 231.1875 291.832031 231.050781 C 291.746094 230.925781 291.722656 230.761719 291.773438 230.621094 C 292.03125 229.925781 292.296875 229.207031 292.554688 228.515625 L 293.378906 226.292969 Z M 95.277344 235.023438 C 95.277344 232.394531 105.585938 227.28125 124.480469 227.28125 C 136.117188 227.28125 146.792969 229.40625 151.6875 232.699219 C 152.9375 233.542969 153.6875 234.410156 153.6875 235.023438 C 153.6875 235.632812 152.941406 236.5 151.683594 237.347656 C 151.679688 237.347656 151.679688 237.347656 151.679688 237.347656 C 151.679688 237.347656 151.679688 237.347656 151.679688 237.351562 C 149.601562 238.757812 146.3125 240 142.167969 240.949219 C 137.429688 242.035156 131.855469 242.65625 126.007812 242.75 C 125.503906 242.757812 124.996094 242.761719 124.480469 242.761719 C 105.585938 242.761719 95.277344 237.648438 95.277344 235.023438 Z M 246.074219 340.050781 C 246.523438 336.996094 248.546875 334.027344 252.089844 331.21875 L 317.722656 340.769531 C 313.320312 346.777344 313.058594 353.269531 316.960938 360.164062 L 255.753906 351.261719 C 255.742188 351.261719 255.730469 351.257812 255.71875 351.257812 L 249.324219 350.328125 C 246.710938 346.574219 245.621094 343.121094 246.074219 340.050781 Z M 171.835938 421.46875 L 272.777344 380.585938 C 277.886719 381.769531 283.460938 382.664062 289.40625 383.261719 L 172.5 437.335938 C 172.890625 432.046875 172.671875 426.738281 171.835938 421.46875 Z M 86.351562 378.65625 C 86.394531 378.648438 86.433594 378.628906 86.476562 378.613281 C 86.578125 378.585938 86.679688 378.554688 86.773438 378.511719 C 86.84375 378.484375 86.90625 378.449219 86.972656 378.414062 C 87.054688 378.371094 87.132812 378.328125 87.210938 378.273438 C 87.277344 378.230469 87.34375 378.179688 87.40625 378.128906 C 87.441406 378.101562 87.480469 378.078125 87.515625 378.050781 C 87.566406 378 87.621094 377.945312 87.671875 377.890625 C 87.679688 377.882812 87.6875 377.875 87.695312 377.867188 C 89.960938 375.519531 90.832031 368.75 91.160156 363.242188 C 94.882812 364.480469 98.738281 365.109375 102.675781 365.109375 C 105.695312 365.109375 108.683594 364.734375 111.582031 364.003906 C 112.484375 375.183594 114.59375 377.089844 115.320312 377.742188 C 115.355469 377.773438 115.390625 377.792969 115.425781 377.820312 C 115.492188 377.875 115.554688 377.921875 115.625 377.96875 C 115.703125 378.023438 115.78125 378.070312 115.867188 378.113281 C 115.925781 378.144531 115.988281 378.175781 116.054688 378.203125 C 116.164062 378.25 116.273438 378.289062 116.386719 378.320312 C 116.417969 378.328125 116.445312 378.34375 116.476562 378.351562 C 116.503906 378.359375 118.445312 378.828125 121.46875 379.707031 L 101.828125 399.371094 L 82.234375 379.757812 C 84.75 379.042969 86.328125 378.664062 86.351562 378.65625 Z M 63.738281 271.75 C 65.554688 272.335938 68.15625 272.757812 71.886719 272.753906 C 79.457031 272.753906 90.039062 271.03125 103.332031 267.636719 C 108.570312 266.296875 113.503906 265.617188 117.992188 265.617188 C 131.226562 265.617188 140.898438 271.582031 145.230469 282.40625 C 149.53125 293.148438 147.5 306.964844 140.710938 315.171875 C 135.28125 310.34375 127.160156 307.902344 116.523438 307.902344 C 106.355469 307.902344 97.402344 310.171875 96.152344 310.503906 C 92.273438 311.148438 88.65625 311.472656 85.40625 311.472656 C 77.679688 311.472656 71.757812 309.640625 67.785156 306.035156 C 67.695312 305.941406 67.605469 305.851562 67.5 305.769531 C 58.015625 296.746094 61.75 278.863281 63.738281 271.75 Z M 67.238281 319 C 67.238281 316.828125 67.402344 314.671875 67.695312 312.546875 C 72.324219 315.355469 78.257812 316.78125 85.40625 316.785156 C 88.984375 316.785156 92.9375 316.425781 97.152344 315.71875 C 97.242188 315.703125 97.328125 315.683594 97.414062 315.660156 C 97.503906 315.636719 106.492188 313.214844 116.523438 313.214844 C 126.480469 313.214844 133.726562 315.507812 138.097656 320.023438 C 137.726562 337.59375 127.789062 352.777344 113.097656 358.003906 C 112.953125 358.054688 112.808594 358.101562 112.625 358.164062 C 109.414062 359.246094 106.070312 359.796875 102.675781 359.796875 C 98.21875 359.796875 93.871094 358.855469 89.761719 357 C 89.757812 356.996094 89.753906 356.996094 89.75 356.996094 C 76.074219 350.8125 67.238281 335.898438 67.238281 319 Z M 37.425781 420.148438 C 39.558594 409.21875 43.914062 402.320312 43.957031 402.257812 C 44.085938 402.054688 44.1875 401.839844 44.257812 401.613281 C 46.417969 394.722656 58.128906 387.429688 76.476562 381.503906 L 99.953125 405.003906 C 100.449219 405.503906 101.125 405.78125 101.828125 405.78125 C 102.53125 405.78125 103.207031 405.5 103.703125 405.003906 L 127.199219 381.476562 C 145.558594 387.515625 157.257812 394.816406 159.394531 401.613281 C 159.464844 401.835938 159.566406 402.054688 159.691406 402.25 C 159.734375 402.320312 164.128906 409.289062 166.253906 420.308594 C 167.589844 427.273438 167.753906 434.34375 166.738281 441.328125 C 165.734375 448.242188 163.554688 455.097656 160.277344 461.738281 L 139.722656 461.738281 C 141.804688 455.699219 145.046875 443.042969 142.488281 427.929688 C 142.246094 426.484375 140.875 425.503906 139.429688 425.753906 C 137.988281 426 137.015625 427.371094 137.257812 428.816406 C 139.894531 444.402344 135.71875 457.417969 134.066406 461.738281 L 68.777344 461.738281 C 67.144531 457.417969 63.054688 444.449219 65.703125 428.816406 C 65.945312 427.371094 64.972656 426 63.53125 425.753906 C 62.082031 425.507812 60.714844 426.484375 60.472656 427.929688 C 57.914062 443.046875 61.09375 455.707031 63.136719 461.738281 L 43.371094 461.738281 C 36.691406 448.210938 34.679688 434.230469 37.425781 420.148438 Z M 362.132812 362.53125 C 362.132812 368.777344 345.34375 376.632812 318.21875 378.4375 C 312.207031 378.828125 306.09375 378.914062 300 378.679688 C 298.101562 378.605469 296.199219 378.5 294.351562 378.363281 C 286.628906 377.800781 279.503906 376.746094 273.167969 375.230469 C 257.125 371.394531 251.429688 365.992188 251.429688 362.53125 C 251.429688 360.222656 253.664062 358.128906 255.828125 356.636719 L 322.292969 366.304688 C 322.300781 366.308594 322.308594 366.308594 322.3125 366.308594 C 322.433594 366.324219 322.554688 366.335938 322.679688 366.335938 C 322.789062 366.335938 322.902344 366.324219 323.011719 366.3125 C 323.015625 366.3125 323.023438 366.3125 323.03125 366.308594 C 323.101562 366.300781 323.171875 366.28125 323.246094 366.265625 C 323.289062 366.257812 323.335938 366.25 323.382812 366.238281 C 323.441406 366.222656 323.5 366.199219 323.554688 366.175781 C 323.613281 366.15625 323.671875 366.136719 323.726562 366.113281 C 323.777344 366.09375 323.824219 366.066406 323.871094 366.042969 C 323.933594 366.011719 323.996094 365.976562 324.058594 365.941406 C 324.074219 365.933594 324.089844 365.925781 324.101562 365.917969 L 346.59375 351.554688 C 356.207031 354.644531 362.132812 358.800781 362.132812 362.53125 Z M 323.269531 360.152344 C 317.851562 352.839844 318.28125 347.019531 324.554688 341.03125 L 357.128906 324.128906 C 355.203125 328.523438 354.546875 332.714844 355.410156 336 C 355.691406 337.058594 356.117188 338 356.683594 338.8125 Z M 323.269531 360.152344 "/></g></g></svg>