<svg xmlns="http://www.w3.org/2000/svg" xmlns:xlink="http://www.w3.org/1999/xlink" width="528" zoomAndPan="magnify" viewBox="0 0 396 611.999999" height="816" preserveAspectRatio="xMidYMid meet" version="1.2"><defs><clipPath id="53041f0b04"><path d="M 72.199219 271 L 150 271 L 150 371 L 72.199219 371 Z M 72.199219 271 "/></clipPath><clipPath id="f5134cc638"><path d="M 281 51 L 348.828125 51 L 348.828125 150 L 281 150 Z M 281 51 "/></clipPath><clipPath id="f0997fb729"><path d="M 47 384.132812 L 199.792969 384.132812 L 199.792969 530.769531 L 47 530.769531 Z M 47 384.132812 "/></clipPath></defs><g id="2de9ba1e2d"><rect x="0" width="396" y="0" height="611.999999" style="fill:#ffffff;fill-opacity:1;stroke:none;"/><rect x="0" width="396" y="0" height="611.999999" style="fill:#ffffff;fill-opacity:1;stroke:none;"/><path style=" stroke:none;fill-rule:nonzero;fill:#000000;fill-opacity:1;" d="M 179.230469 353.824219 L 177.9375 354.082031 C 175.09375 354.859375 173.542969 357.707031 174.320312 360.554688 C 174.835938 362.886719 177.164062 364.4375 179.230469 364.4375 C 180.007812 364.4375 181.039062 364.179688 181.816406 363.921875 C 184.660156 363.144531 186.210938 360.296875 185.4375 357.449219 C 184.917969 354.597656 182.074219 353.046875 179.230469 353.824219 Z M 179.230469 353.824219 "/><path style=" stroke:none;fill-rule:nonzero;fill:#000000;fill-opacity:1;" d="M 271.269531 108.347656 C 271.269531 89.703125 256.273438 74.6875 237.660156 74.6875 C 219.042969 74.6875 204.050781 89.703125 204.050781 108.347656 C 204.050781 126.992188 219.042969 142.011719 237.660156 142.011719 C 256.273438 142.011719 271.269531 126.992188 271.269531 108.347656 Z M 237.660156 131.652344 C 224.730469 131.652344 214.390625 121.296875 214.390625 108.347656 C 214.390625 95.402344 224.730469 85.042969 237.660156 85.042969 C 250.585938 85.042969 260.925781 95.402344 260.925781 108.347656 C 260.925781 121.296875 250.585938 131.652344 237.660156 131.652344 Z M 237.660156 131.652344 "/><path style=" stroke:none;fill-rule:nonzero;fill:#000000;fill-opacity:1;" d="M 245.15625 102.132812 L 234.296875 108.867188 L 231.195312 104.980469 C 229.386719 102.910156 226.023438 102.652344 223.957031 104.464844 C 221.886719 106.277344 221.628906 109.644531 223.441406 111.714844 C 223.441406 111.714844 229.644531 118.964844 229.644531 118.964844 C 231.195312 120.777344 234.296875 121.296875 236.367188 120 L 250.84375 110.9375 C 253.171875 109.382812 253.945312 106.277344 252.394531 103.6875 C 250.84375 101.097656 247.742188 100.582031 245.15625 102.132812 Z M 245.15625 102.132812 "/><path style=" stroke:none;fill-rule:nonzero;fill:#000000;fill-opacity:1;" d="M 160.359375 359.777344 L 145.882812 357.1875 C 143.039062 356.671875 140.453125 358.484375 139.933594 361.332031 C 139.417969 363.664062 140.710938 365.734375 142.519531 366.769531 L 126.75 372.984375 C 124.164062 374.019531 122.871094 377.128906 123.90625 379.714844 C 124.941406 382.304688 128.042969 383.601562 130.628906 382.566406 L 146.914062 376.089844 C 146.65625 377.902344 147.691406 379.714844 149.242188 380.753906 C 151.570312 382.304688 154.929688 381.527344 156.480469 379.199219 L 164.238281 367.546875 C 165.269531 365.992188 165.269531 364.179688 164.753906 362.625 C 163.460938 361.074219 162.167969 360.039062 160.359375 359.777344 Z M 160.359375 359.777344 "/><g clip-rule="nonzero" clip-path="url(#53041f0b04)"><path style=" stroke:none;fill-rule:nonzero;fill:#000000;fill-opacity:1;" d="M 149.757812 308.25 C 149.757812 288.050781 132.179688 271.480469 110.980469 271.480469 C 89.78125 271.480469 72.199219 288.050781 72.199219 308.25 C 72.199219 314.207031 74.011719 320.417969 77.371094 326.375 C 77.371094 326.375 103.222656 365.734375 103.222656 365.734375 C 106.84375 371.171875 115.117188 371.691406 118.734375 365.734375 L 144.589844 326.117188 C 147.949219 320.417969 149.757812 314.207031 149.757812 308.25 Z M 135.796875 320.417969 L 110.980469 358.484375 L 86.160156 320.679688 C 83.832031 316.535156 82.542969 312.390625 82.542969 308.25 C 82.542969 293.75 95.46875 281.835938 110.980469 281.835938 C 126.492188 281.835938 139.417969 293.75 139.417969 308.25 C 139.417969 312.390625 138.125 316.535156 135.796875 320.417969 Z M 135.796875 320.417969 "/></g><path style=" stroke:none;fill-rule:nonzero;fill:#000000;fill-opacity:1;" d="M 110.980469 294.785156 C 102.449219 294.785156 95.46875 301.777344 95.46875 310.320312 C 95.46875 318.867188 102.449219 325.855469 110.980469 325.855469 C 119.511719 325.855469 126.492188 318.867188 126.492188 310.320312 C 126.492188 301.777344 119.511719 294.785156 110.980469 294.785156 Z M 110.980469 315.5 C 108.136719 315.5 105.808594 313.167969 105.808594 310.320312 C 105.808594 307.472656 108.136719 305.140625 110.980469 305.140625 C 113.824219 305.140625 116.148438 307.472656 116.148438 310.320312 C 116.148438 313.167969 113.824219 315.5 110.980469 315.5 Z M 110.980469 315.5 "/><path style=" stroke:none;fill-rule:nonzero;fill:#000000;fill-opacity:1;" d="M 148.984375 225.90625 C 148.207031 225.390625 147.691406 225.128906 146.914062 224.613281 C 144.589844 222.800781 141.484375 223.316406 139.675781 225.648438 C 137.867188 227.976562 138.382812 231.085938 140.710938 232.898438 C 141.484375 233.417969 142.261719 233.933594 143.039062 234.453125 C 145.363281 236.003906 148.726562 235.230469 150.277344 232.898438 C 151.828125 230.566406 151.308594 227.460938 148.984375 225.90625 Z M 148.984375 225.90625 "/><path style=" stroke:none;fill-rule:nonzero;fill:#000000;fill-opacity:1;" d="M 171.476562 236.523438 C 170.699219 236.265625 169.925781 236.003906 169.148438 235.746094 C 166.5625 234.710938 163.460938 236.003906 162.425781 238.855469 C 161.394531 241.441406 162.683594 244.550781 165.527344 245.585938 C 166.304688 245.84375 167.082031 246.105469 168.113281 246.621094 C 170.699219 247.65625 173.800781 246.105469 174.835938 243.515625 C 175.351562 240.40625 174.0625 237.558594 171.476562 236.523438 Z M 171.476562 236.523438 "/><path style=" stroke:none;fill-rule:nonzero;fill:#000000;fill-opacity:1;" d="M 166.5625 183.441406 C 167.855469 183.441406 169.148438 182.921875 170.441406 182.664062 C 173.285156 181.886719 174.835938 179.296875 174.320312 176.449219 C 173.542969 173.601562 170.957031 172.046875 168.113281 172.566406 C 167.339844 172.824219 166.304688 173.082031 165.527344 173.34375 C 162.683594 174.117188 161.132812 176.96875 161.910156 179.558594 C 162.167969 181.886719 164.238281 183.441406 166.5625 183.441406 Z M 166.5625 183.441406 "/><path style=" stroke:none;fill-rule:nonzero;fill:#000000;fill-opacity:1;" d="M 218.269531 174.894531 C 219.304688 174.894531 220.335938 174.636719 221.628906 174.636719 C 224.472656 174.378906 226.542969 171.789062 226.023438 168.941406 C 225.765625 166.09375 223.179688 164.019531 220.335938 164.539062 L 217.753906 164.796875 C 214.910156 165.054688 212.839844 167.644531 213.355469 170.492188 C 213.355469 172.824219 215.683594 174.894531 218.269531 174.894531 Z M 218.269531 174.894531 "/><path style=" stroke:none;fill-rule:nonzero;fill:#000000;fill-opacity:1;" d="M 245.933594 160.394531 L 243.347656 160.914062 C 240.503906 161.429688 238.691406 164.019531 239.210938 166.867188 C 239.726562 169.457031 241.796875 171.269531 244.378906 171.269531 C 245.414062 171.269531 246.707031 171.011719 247.742188 170.753906 C 250.585938 170.234375 252.394531 167.644531 251.878906 164.796875 C 251.359375 161.949219 248.515625 159.878906 245.933594 160.394531 Z M 245.933594 160.394531 "/><path style=" stroke:none;fill-rule:nonzero;fill:#000000;fill-opacity:1;" d="M 267.90625 154.957031 C 265.320312 155.992188 263.769531 158.839844 264.804688 161.691406 C 265.578125 164.019531 268.164062 165.574219 270.492188 165.054688 C 271.785156 164.796875 272.820312 164.28125 273.851562 163.761719 C 276.4375 162.726562 277.730469 159.617188 276.695312 157.027344 C 275.664062 154.441406 272.558594 153.144531 269.976562 154.179688 C 269.199219 154.441406 268.683594 154.699219 267.90625 154.957031 Z M 267.90625 154.957031 "/><path style=" stroke:none;fill-rule:nonzero;fill:#000000;fill-opacity:1;" d="M 131.144531 215.03125 C 133.472656 215.03125 135.796875 213.21875 136.316406 210.886719 C 136.316406 210.371094 136.316406 207.78125 136.316406 207.261719 C 136.316406 204.414062 133.988281 202.085938 131.144531 202.085938 C 128.300781 202.085938 125.972656 204.414062 125.972656 207.261719 C 125.972656 208.300781 125.972656 209.335938 126.234375 210.371094 C 126.234375 213.21875 128.558594 215.03125 131.144531 215.03125 Z M 131.144531 215.03125 "/><path style=" stroke:none;fill-rule:nonzero;fill:#000000;fill-opacity:1;" d="M 196.035156 244.03125 L 193.449219 243.253906 C 190.605469 242.480469 187.761719 244.03125 186.988281 246.882812 C 186.210938 249.730469 187.761719 252.578125 190.605469 253.355469 C 191.898438 253.613281 193.191406 254.132812 194.484375 254.132812 C 196.8125 254.132812 198.878906 252.578125 199.398438 250.246094 C 200.429688 247.65625 198.878906 244.808594 196.035156 244.03125 Z M 196.035156 244.03125 "/><path style=" stroke:none;fill-rule:nonzero;fill:#000000;fill-opacity:1;" d="M 192.15625 178.261719 C 193.191406 178.261719 194.484375 178.003906 195.519531 177.746094 C 198.363281 177.226562 200.171875 174.636719 199.914062 171.789062 C 199.398438 168.941406 196.8125 167.128906 193.96875 167.386719 L 191.382812 167.90625 C 188.539062 168.421875 186.730469 171.011719 186.988281 173.859375 C 187.503906 176.449219 189.832031 178.261719 192.15625 178.261719 Z M 192.15625 178.261719 "/><path style=" stroke:none;fill-rule:nonzero;fill:#000000;fill-opacity:1;" d="M 299.1875 282.355469 C 300.738281 279.765625 299.707031 276.660156 297.378906 275.363281 C 296.605469 274.847656 295.828125 274.328125 295.050781 274.070312 C 292.46875 272.773438 289.363281 273.550781 288.070312 276.140625 C 286.78125 278.730469 287.554688 281.835938 290.140625 283.132812 C 290.914062 283.648438 291.691406 283.910156 292.207031 284.425781 C 294.535156 285.460938 297.636719 284.6875 299.1875 282.355469 Z M 299.1875 282.355469 "/><path style=" stroke:none;fill-rule:nonzero;fill:#000000;fill-opacity:1;" d="M 280.574219 328.707031 C 279.800781 328.964844 279.023438 329.222656 278.246094 329.742188 C 275.664062 330.777344 274.371094 333.625 275.144531 336.472656 C 275.921875 338.546875 277.988281 339.839844 280.058594 339.839844 C 281.609375 339.839844 283.160156 339.0625 284.453125 338.546875 C 287.039062 337.507812 288.332031 334.402344 287.296875 331.8125 C 286.261719 329.222656 283.160156 327.667969 280.574219 328.707031 Z M 280.574219 328.707031 "/><path style=" stroke:none;fill-rule:nonzero;fill:#000000;fill-opacity:1;" d="M 315.734375 294.265625 C 314.699219 291.675781 311.855469 290.125 309.011719 291.160156 C 306.425781 292.195312 304.875 295.042969 305.910156 297.890625 C 306.167969 298.410156 306.425781 299.1875 306.425781 299.703125 C 306.945312 302.554688 309.789062 304.105469 312.632812 303.589844 C 315.476562 303.070312 317.027344 300.222656 316.511719 297.375 C 316.25 296.339844 315.992188 295.300781 315.734375 294.265625 Z M 315.734375 294.265625 "/><path style=" stroke:none;fill-rule:nonzero;fill:#000000;fill-opacity:1;" d="M 301 316.277344 C 300.480469 316.792969 299.964844 317.3125 299.449219 317.832031 C 297.378906 319.644531 297.121094 323.007812 298.929688 325.082031 C 300.738281 327.152344 304.101562 327.410156 306.167969 325.597656 C 306.945312 324.820312 307.71875 324.304688 308.238281 323.527344 C 310.304688 321.457031 310.304688 318.089844 308.238281 316.277344 C 306.167969 314.207031 302.808594 314.207031 301 316.277344 Z M 301 316.277344 "/><path style=" stroke:none;fill-rule:nonzero;fill:#000000;fill-opacity:1;" d="M 272.300781 264.488281 L 269.714844 263.710938 C 267.132812 262.933594 264.027344 264.230469 263.253906 267.078125 C 262.476562 269.925781 263.769531 272.773438 266.613281 273.550781 L 268.941406 274.328125 C 271.269531 275.105469 274.113281 274.070312 275.144531 271.738281 C 276.695312 268.890625 275.144531 265.265625 272.300781 264.488281 Z M 272.300781 264.488281 "/><path style=" stroke:none;fill-rule:nonzero;fill:#000000;fill-opacity:1;" d="M 230.9375 342.171875 L 228.351562 342.6875 C 225.507812 343.207031 223.699219 346.054688 224.472656 348.902344 C 224.992188 351.234375 227.058594 353.046875 229.644531 353.046875 C 230.9375 353.046875 232.230469 352.527344 233.265625 352.269531 C 236.109375 351.75 237.917969 348.902344 237.140625 346.054688 C 236.367188 343.207031 233.78125 341.652344 230.9375 342.171875 Z M 230.9375 342.171875 "/><path style=" stroke:none;fill-rule:nonzero;fill:#000000;fill-opacity:1;" d="M 221.371094 250.507812 L 218.785156 249.988281 C 215.941406 249.210938 213.097656 251.023438 212.582031 253.871094 C 211.804688 256.71875 213.617188 259.570312 216.460938 260.085938 C 217.753906 260.347656 219.042969 260.863281 220.335938 260.863281 C 222.664062 260.863281 224.730469 259.308594 225.25 256.980469 C 225.765625 254.132812 223.957031 251.28125 221.371094 250.507812 Z M 221.371094 250.507812 "/><path style=" stroke:none;fill-rule:nonzero;fill:#000000;fill-opacity:1;" d="M 205.34375 347.609375 L 202.757812 348.125 C 199.914062 348.644531 198.105469 351.492188 198.878906 354.339844 C 199.398438 356.671875 201.464844 358.484375 204.050781 358.484375 C 205.34375 358.484375 206.636719 357.964844 207.667969 357.707031 C 210.511719 357.1875 212.324219 354.339844 211.546875 351.492188 C 210.773438 348.902344 208.1875 347.089844 205.34375 347.609375 Z M 205.34375 347.609375 "/><path style=" stroke:none;fill-rule:nonzero;fill:#000000;fill-opacity:1;" d="M 246.707031 256.980469 L 244.121094 256.203125 C 241.277344 255.425781 238.433594 257.238281 237.917969 259.828125 C 237.140625 262.675781 238.953125 265.523438 241.535156 266.042969 C 242.828125 266.300781 244.121094 266.820312 245.414062 266.820312 C 247.742188 266.820312 249.808594 265.265625 250.328125 262.933594 C 251.359375 260.605469 249.550781 257.757812 246.707031 256.980469 Z M 246.707031 256.980469 "/><path style=" stroke:none;fill-rule:nonzero;fill:#000000;fill-opacity:1;" d="M 256.273438 336.472656 L 253.6875 336.992188 C 250.84375 337.769531 249.292969 340.617188 250.066406 343.207031 C 250.585938 345.535156 252.652344 347.089844 254.980469 347.089844 C 256.273438 347.089844 257.566406 346.574219 258.859375 346.3125 C 261.703125 345.535156 263.253906 342.6875 262.476562 340.097656 C 261.703125 337.25 258.859375 335.695312 256.273438 336.472656 Z M 256.273438 336.472656 "/><g clip-rule="nonzero" clip-path="url(#f5134cc638)"><path style=" stroke:none;fill-rule:nonzero;fill:#000000;fill-opacity:1;" d="M 345.722656 57.078125 C 343.65625 56.042969 341.328125 56.300781 339.261719 57.597656 C 332.796875 61.738281 326.59375 59.667969 317.027344 56.042969 C 307.460938 52.160156 296.605469 48.015625 285.488281 55.523438 C 283.160156 57.078125 281.609375 59.925781 281.609375 62.515625 L 281.609375 144.601562 C 281.609375 147.449219 283.9375 149.777344 286.78125 149.777344 C 289.625 149.777344 291.949219 147.449219 291.949219 144.601562 L 291.949219 97.730469 C 298.15625 94.105469 304.101562 96.179688 313.40625 99.804688 C 319.09375 102.132812 325.300781 104.464844 331.761719 104.464844 C 336.160156 104.464844 340.554688 103.429688 344.949219 100.320312 C 347.273438 98.769531 348.828125 95.917969 348.828125 93.328125 L 348.828125 62.257812 C 348.828125 60.1875 347.792969 58.113281 345.722656 57.078125 Z M 338.484375 92.292969 C 332.28125 95.917969 326.335938 93.847656 317.027344 90.222656 C 311.339844 87.890625 305.136719 85.5625 298.671875 85.5625 C 296.34375 85.5625 294.277344 85.820312 291.949219 86.597656 L 291.949219 63.550781 C 298.15625 59.925781 304.101562 62 313.40625 65.625 C 321.164062 68.730469 329.695312 72.097656 338.484375 69.25 Z M 338.484375 92.292969 "/></g><path style=" stroke:none;fill-rule:nonzero;fill:#000000;fill-opacity:1;" d="M 143.296875 192.761719 C 144.589844 192.503906 145.621094 191.726562 146.914062 191.210938 C 149.5 189.914062 150.535156 186.808594 149.5 184.21875 C 148.207031 181.628906 145.105469 180.59375 142.519531 181.628906 C 141.746094 181.886719 140.96875 182.40625 140.191406 182.664062 C 137.609375 183.957031 136.574219 187.066406 137.867188 189.65625 C 138.640625 192.246094 140.96875 193.28125 143.296875 192.761719 Z M 143.296875 192.761719 "/><path style=" stroke:none;fill-rule:nonzero;fill:#fec165;fill-opacity:1;" d="M 179.164062 493.25 L 179.164062 486.027344 C 179.164062 484.894531 180.085938 484 181.1875 484 L 195.160156 484 C 196.589844 484 197.570312 485.429688 197.066406 486.746094 L 194.894531 492.535156 C 194.714844 492.984375 194.714844 493.519531 194.894531 493.96875 L 197.066406 499.757812 C 197.570312 501.101562 196.589844 502.503906 195.160156 502.503906 L 181.1875 502.503906 C 180.054688 502.503906 179.164062 501.578125 179.164062 500.472656 Z M 179.164062 493.25 "/><path style=" stroke:none;fill-rule:nonzero;fill:#fec165;fill-opacity:1;" d="M 67.476562 493.25 L 67.476562 486.027344 C 67.476562 484.894531 66.554688 484 65.453125 484 L 51.480469 484 C 50.050781 484 49.070312 485.429688 49.578125 486.746094 L 51.746094 492.535156 C 51.925781 492.984375 51.925781 493.519531 51.746094 493.96875 L 49.578125 499.757812 C 49.070312 501.101562 50.050781 502.503906 51.480469 502.503906 L 65.453125 502.503906 C 66.585938 502.503906 67.476562 501.578125 67.476562 500.472656 Z M 67.476562 493.25 "/><path style=" stroke:none;fill-rule:nonzero;fill:#fdb441;fill-opacity:1;" d="M 197.09375 499.757812 C 197.601562 501.101562 196.617188 502.503906 195.191406 502.503906 L 188.203125 502.503906 C 189.628906 502.503906 190.613281 501.070312 190.105469 499.757812 L 187.9375 493.96875 C 187.757812 493.519531 187.757812 492.984375 187.9375 492.535156 L 190.105469 486.746094 C 190.613281 485.402344 189.628906 484 188.203125 484 L 195.191406 484 C 196.617188 484 197.601562 485.429688 197.09375 486.746094 L 194.921875 492.535156 C 194.746094 492.984375 194.746094 493.488281 194.921875 493.96875 Z M 197.09375 499.757812 "/><path style=" stroke:none;fill-rule:nonzero;fill:#fdb441;fill-opacity:1;" d="M 67.476562 486.027344 L 67.476562 500.472656 C 67.476562 501.609375 66.554688 502.503906 65.453125 502.503906 L 58.4375 502.503906 C 59.566406 502.503906 60.460938 501.578125 60.460938 500.472656 L 60.460938 486.027344 C 60.460938 484.894531 59.539062 484 58.4375 484 L 65.425781 484 C 66.554688 484 67.476562 484.894531 67.476562 486.027344 Z M 67.476562 486.027344 "/><path style=" stroke:none;fill-rule:nonzero;fill:#c8effe;fill-opacity:1;" d="M 110.207031 387.625 C 99.175781 389.234375 83.625 391.921875 73.214844 395.472656 C 72.027344 395.890625 71.222656 396.996094 71.222656 398.28125 L 71.222656 478.597656 C 71.222656 491.191406 77.171875 503.191406 87.667969 511.398438 C 95.875 517.816406 107.5 524.46875 123.351562 528.53125 C 139.167969 524.46875 150.796875 517.816406 159.03125 511.398438 C 169.53125 503.191406 175.476562 491.191406 175.476562 478.597656 L 175.476562 398.25 C 175.476562 396.996094 174.671875 395.863281 173.484375 395.445312 C 163.015625 391.921875 147.464844 389.234375 136.433594 387.625 C 127.75 386.371094 118.890625 386.371094 110.207031 387.625 Z M 110.207031 387.625 "/><path style=" stroke:none;fill-rule:nonzero;fill:#99e6fc;fill-opacity:1;" d="M 175.417969 398.25 L 175.417969 478.566406 C 175.417969 491.160156 169.46875 503.160156 158.972656 511.367188 C 152.9375 516.082031 145.058594 520.917969 135.007812 524.800781 C 142.292969 521.335938 148.238281 517.335938 153.054688 513.457031 C 163.550781 504.949219 169.5 492.476562 169.5 479.402344 L 169.5 395.953125 C 169.5 395.234375 169.261719 394.546875 168.84375 394.042969 C 170.453125 394.488281 171.996094 394.964844 173.453125 395.472656 C 174.613281 395.863281 175.417969 396.996094 175.417969 398.25 Z M 175.417969 398.25 "/><path style=" stroke:none;fill-rule:nonzero;fill:#f9f7f8;fill-opacity:1;" d="M 112.644531 398.371094 C 103.398438 399.710938 90.226562 401.980469 81.75 405.023438 C 81.246094 405.203125 80.917969 405.679688 80.917969 406.21875 L 80.917969 476.953125 C 80.917969 487.191406 85.765625 496.980469 94.296875 503.636719 C 100.988281 508.859375 110.445312 514.261719 123.320312 517.574219 C 136.195312 514.261719 145.652344 508.859375 152.34375 503.636719 C 160.875 496.980469 165.722656 487.191406 165.722656 476.953125 L 165.722656 406.21875 C 165.722656 405.679688 165.394531 405.203125 164.890625 405.023438 C 156.417969 402.011719 143.242188 399.710938 133.996094 398.371094 C 126.917969 397.355469 119.722656 397.355469 112.644531 398.371094 Z M 112.644531 398.371094 "/><path style=" stroke:none;fill-rule:nonzero;fill:#efedef;fill-opacity:1;" d="M 165.722656 406.21875 L 165.722656 476.953125 C 165.722656 487.191406 160.875 496.980469 152.34375 503.636719 C 146.542969 508.144531 138.664062 512.832031 128.285156 516.144531 C 135.808594 512.980469 141.757812 509.128906 146.394531 505.398438 C 154.929688 498.472656 159.777344 488.328125 159.777344 477.699219 L 159.777344 404.277344 C 159.777344 403.921875 159.628906 403.59375 159.417969 403.355469 C 161.382812 403.890625 163.226562 404.457031 164.890625 405.054688 C 165.394531 405.203125 165.722656 405.679688 165.722656 406.21875 Z M 165.722656 406.21875 "/><path style=" stroke:none;fill-rule:nonzero;fill:#fedba6;fill-opacity:1;" d="M 183.890625 491.074219 L 62.75 491.074219 C 61.738281 491.074219 60.90625 490.238281 60.90625 489.222656 L 60.90625 466.390625 C 60.90625 465.375 61.738281 464.539062 62.75 464.539062 L 183.890625 464.539062 C 184.902344 464.539062 185.734375 465.375 185.734375 466.390625 L 185.734375 489.222656 C 185.734375 490.238281 184.902344 491.074219 183.890625 491.074219 Z M 183.890625 491.074219 "/><path style=" stroke:none;fill-rule:nonzero;fill:#fece85;fill-opacity:1;" d="M 185.734375 466.390625 L 185.734375 489.222656 C 185.734375 490.238281 184.933594 491.074219 183.921875 491.074219 L 177.972656 491.074219 C 178.984375 491.074219 179.789062 490.238281 179.789062 489.222656 L 179.789062 466.390625 C 179.789062 465.375 178.984375 464.539062 177.972656 464.539062 L 183.921875 464.539062 C 184.902344 464.570312 185.734375 465.375 185.734375 466.390625 Z M 185.734375 466.390625 "/><path style=" stroke:none;fill-rule:nonzero;fill:#8d9ca8;fill-opacity:1;" d="M 121.507812 428.753906 L 102.417969 428.753906 L 102.417969 444.691406 C 102.417969 445.734375 103.101562 446.660156 104.082031 446.960938 C 105.71875 447.464844 107.976562 448.183594 108.304688 448.273438 C 117.492188 450.957031 130.308594 451.078125 139.257812 446.632812 C 140.0625 446.242188 140.566406 445.40625 140.566406 444.511719 L 140.566406 428.753906 Z M 121.507812 428.753906 "/><path style=" stroke:none;fill-rule:nonzero;fill:#7a8c98;fill-opacity:1;" d="M 140.566406 428.753906 L 140.566406 444.511719 C 140.566406 445.40625 140.0625 446.242188 139.289062 446.632812 C 137.742188 447.40625 136.046875 448.035156 134.292969 448.542969 C 134.5 448.183594 134.621094 447.765625 134.621094 447.316406 L 134.621094 428.722656 Z M 140.566406 428.753906 "/><path style=" stroke:none;fill-rule:nonzero;fill:#596c76;fill-opacity:1;" d="M 120.347656 411.234375 L 89.777344 424.214844 C 89.304688 424.425781 89.304688 425.082031 89.777344 425.261719 L 120.347656 438.273438 C 121.089844 438.574219 121.921875 438.574219 122.636719 438.273438 L 153.203125 425.289062 C 153.679688 425.082031 153.679688 424.425781 153.203125 424.246094 L 122.636719 411.261719 C 121.894531 410.933594 121.089844 410.933594 120.347656 411.234375 Z M 120.347656 411.234375 "/><path style=" stroke:none;fill-rule:nonzero;fill:#465a61;fill-opacity:1;" d="M 153.203125 425.289062 L 122.636719 438.273438 C 121.894531 438.601562 121.058594 438.601562 120.347656 438.273438 L 115.738281 436.304688 L 141.695312 425.289062 C 142.171875 425.082031 142.171875 424.425781 141.695312 424.246094 L 115.738281 413.234375 L 120.347656 411.261719 C 121.089844 410.964844 121.921875 410.964844 122.636719 411.261719 L 153.203125 424.246094 C 153.679688 424.425781 153.679688 425.082031 153.203125 425.289062 Z M 153.203125 425.289062 "/><path style=" stroke:none;fill-rule:nonzero;fill:#596c76;fill-opacity:1;" d="M 153.5625 451.167969 C 151.539062 451.167969 149.902344 449.527344 149.902344 447.496094 L 149.902344 443.140625 C 149.902344 441.109375 151.539062 439.46875 153.5625 439.46875 C 155.582031 439.46875 157.21875 441.109375 157.21875 443.140625 L 157.21875 447.496094 C 157.21875 449.527344 155.582031 451.167969 153.5625 451.167969 Z M 153.5625 451.167969 "/><path style=" stroke:none;fill-rule:nonzero;fill:#000000;fill-opacity:1;" d="M 113.507812 481.851562 C 113.476562 481.851562 113.476562 481.851562 113.507812 481.851562 C 112.765625 481.851562 112.019531 481.851562 111.335938 481.851562 L 111.335938 471.523438 C 111.335938 470.300781 110.324219 469.285156 109.105469 469.285156 C 107.886719 469.285156 106.875 470.300781 106.875 471.523438 L 106.875 484.089844 C 106.875 485.164062 107.648438 486.117188 108.71875 486.296875 C 108.867188 486.328125 108.988281 486.328125 110.414062 486.328125 C 111.097656 486.328125 112.082031 486.328125 113.507812 486.328125 C 114.726562 486.328125 115.738281 485.3125 115.738281 484.089844 C 115.707031 482.835938 114.726562 481.851562 113.507812 481.851562 Z M 113.507812 481.851562 "/><path style=" stroke:none;fill-rule:nonzero;fill:#000000;fill-opacity:1;" d="M 127.988281 481.851562 C 127.246094 481.851562 126.503906 481.851562 125.816406 481.851562 L 125.816406 471.523438 C 125.816406 470.300781 124.808594 469.285156 123.589844 469.285156 C 122.367188 469.285156 121.359375 470.300781 121.359375 471.523438 L 121.359375 484.089844 C 121.359375 485.164062 122.132812 486.117188 123.203125 486.296875 C 123.351562 486.328125 123.46875 486.328125 124.894531 486.328125 C 125.582031 486.328125 126.5625 486.328125 127.988281 486.328125 C 129.207031 486.328125 130.21875 485.3125 130.21875 484.089844 C 130.21875 482.835938 129.238281 481.851562 127.988281 481.851562 Z M 127.988281 481.851562 "/><path style=" stroke:none;fill-rule:nonzero;fill:#000000;fill-opacity:1;" d="M 142.203125 473.878906 C 143.421875 473.878906 144.433594 472.867188 144.433594 471.640625 C 144.433594 470.417969 143.421875 469.402344 142.203125 469.402344 L 136.96875 469.402344 C 135.75 469.402344 134.738281 470.417969 134.738281 471.640625 L 134.738281 484.117188 C 134.738281 485.34375 135.75 486.355469 136.96875 486.355469 L 142.203125 486.355469 C 143.421875 486.355469 144.433594 485.34375 144.433594 484.117188 C 144.433594 482.894531 143.421875 481.878906 142.203125 481.878906 L 139.199219 481.878906 L 139.199219 480.117188 L 141.816406 480.117188 C 143.035156 480.117188 144.046875 479.105469 144.046875 477.878906 C 144.046875 476.65625 143.035156 475.640625 141.816406 475.640625 L 139.199219 475.640625 L 139.199219 473.878906 Z M 142.203125 473.878906 "/><path style=" stroke:none;fill-rule:nonzero;fill:#000000;fill-opacity:1;" d="M 176.457031 473.878906 C 177.675781 473.878906 178.6875 472.867188 178.6875 471.640625 C 178.6875 470.417969 177.675781 469.402344 176.457031 469.402344 L 171.222656 469.402344 C 170.003906 469.402344 168.996094 470.417969 168.996094 471.640625 L 168.996094 484.117188 C 168.996094 485.34375 170.003906 486.355469 171.222656 486.355469 L 176.457031 486.355469 C 177.675781 486.355469 178.6875 485.34375 178.6875 484.117188 C 178.6875 482.894531 177.675781 481.878906 176.457031 481.878906 L 173.453125 481.878906 L 173.453125 480.117188 L 176.070312 480.117188 C 177.289062 480.117188 178.300781 479.105469 178.300781 477.878906 C 178.300781 476.65625 177.289062 475.640625 176.070312 475.640625 L 173.453125 475.640625 L 173.453125 473.878906 Z M 176.457031 473.878906 "/><path style=" stroke:none;fill-rule:nonzero;fill:#000000;fill-opacity:1;" d="M 162.570312 475.582031 L 158.824219 475.582031 C 157.605469 475.582031 156.59375 476.597656 156.59375 477.820312 C 156.59375 479.042969 157.605469 480.058594 158.824219 480.058594 L 159.894531 480.058594 C 159.480469 481.015625 158.675781 481.878906 157.160156 481.878906 C 154.929688 481.878906 153.117188 480.058594 153.117188 477.820312 C 153.117188 475.582031 154.929688 473.761719 157.160156 473.761719 C 157.960938 473.761719 158.734375 474 159.417969 474.449219 C 160.429688 475.132812 161.828125 474.867188 162.511719 473.851562 C 163.195312 472.835938 162.929688 471.433594 161.917969 470.746094 C 160.519531 469.792969 158.855469 469.285156 157.160156 469.285156 C 152.460938 469.285156 148.65625 473.105469 148.65625 477.820312 C 148.65625 482.535156 152.460938 486.355469 157.160156 486.355469 C 161.648438 486.355469 164.800781 482.863281 164.800781 477.820312 C 164.800781 476.566406 163.789062 475.582031 162.570312 475.582031 Z M 162.570312 475.582031 "/><path style=" stroke:none;fill-rule:nonzero;fill:#000000;fill-opacity:1;" d="M 81.839844 480.597656 C 80.886719 479.789062 79.488281 479.941406 78.6875 480.863281 C 78.597656 480.984375 78.507812 481.074219 78.417969 481.164062 C 77.914062 481.609375 77.261719 481.851562 76.457031 481.851562 C 74.226562 481.851562 72.414062 480.027344 72.414062 477.789062 C 72.414062 475.550781 74.226562 473.730469 76.457031 473.730469 C 77.261719 473.730469 78.03125 473.96875 78.71875 474.417969 C 79.726562 475.105469 81.125 474.835938 81.808594 473.820312 C 82.492188 472.804688 82.226562 471.402344 81.214844 470.71875 C 79.816406 469.761719 78.152344 469.253906 76.457031 469.253906 C 71.757812 469.253906 67.953125 473.074219 67.953125 477.789062 C 67.953125 482.507812 71.757812 486.328125 76.457031 486.328125 C 78.359375 486.328125 80.054688 485.699219 81.363281 484.507812 C 81.632812 484.265625 81.867188 484.027344 82.105469 483.730469 C 82.878906 482.804688 82.761719 481.402344 81.839844 480.597656 Z M 81.839844 480.597656 "/><path style=" stroke:none;fill-rule:nonzero;fill:#000000;fill-opacity:1;" d="M 94.445312 469.285156 C 89.75 469.285156 85.941406 473.105469 85.941406 477.820312 C 85.941406 482.535156 89.75 486.355469 94.445312 486.355469 C 99.144531 486.355469 102.953125 482.535156 102.953125 477.820312 C 102.953125 473.105469 99.144531 469.285156 94.445312 469.285156 Z M 94.445312 481.851562 C 92.21875 481.851562 90.402344 480.027344 90.402344 477.789062 C 90.402344 475.550781 92.21875 473.730469 94.445312 473.730469 C 96.675781 473.730469 98.492188 475.550781 98.492188 477.789062 C 98.492188 480.027344 96.675781 481.851562 94.445312 481.851562 Z M 94.445312 481.851562 "/><g clip-rule="nonzero" clip-path="url(#f0997fb729)"><path style=" stroke:none;fill-rule:nonzero;fill:#000000;fill-opacity:1;" d="M 197.035156 493.25 L 199.175781 487.519531 C 199.652344 486.207031 199.472656 484.746094 198.699219 483.582031 C 197.898438 482.417969 196.589844 481.730469 195.191406 481.730469 L 187.964844 481.730469 L 187.964844 466.390625 C 187.964844 464.152344 186.152344 462.332031 183.921875 462.332031 L 177.675781 462.332031 L 177.675781 420.632812 C 177.675781 419.410156 176.664062 418.394531 175.445312 418.394531 C 174.226562 418.394531 173.214844 419.410156 173.214844 420.632812 L 173.214844 462.332031 L 167.984375 462.332031 L 167.984375 406.21875 C 167.984375 404.757812 167.0625 403.414062 165.664062 402.9375 C 157.070312 399.863281 143.898438 397.5625 134.351562 396.191406 C 127.066406 395.117188 119.664062 395.117188 112.347656 396.191406 C 102.804688 397.59375 89.601562 399.863281 81.035156 402.9375 C 79.640625 403.441406 78.71875 404.757812 78.71875 406.21875 L 78.71875 462.332031 L 73.453125 462.332031 L 73.453125 398.25 C 73.453125 397.953125 73.632812 397.683594 73.929688 397.5625 C 84.160156 394.070312 99.472656 391.445312 110.535156 389.832031 C 119.039062 388.609375 127.632812 388.609375 136.136719 389.832031 C 147.199219 391.445312 162.511719 394.070312 172.742188 397.5625 C 173.039062 397.652344 173.214844 397.921875 173.214844 398.25 L 173.214844 410.160156 C 173.214844 411.382812 174.226562 412.398438 175.445312 412.398438 C 176.664062 412.398438 177.675781 411.382812 177.675781 410.160156 L 177.675781 398.25 C 177.675781 396.011719 176.28125 394.042969 174.167969 393.324219 C 163.613281 389.742188 148.03125 387.027344 136.789062 385.414062 C 127.871094 384.132812 118.832031 384.132812 109.910156 385.414062 C 98.640625 387.058594 83.027344 389.742188 72.503906 393.355469 C 70.421875 394.070312 68.992188 396.042969 68.992188 398.28125 L 68.992188 462.359375 L 62.75 462.359375 C 60.519531 462.359375 58.703125 464.179688 58.703125 466.417969 L 58.703125 481.761719 L 51.449219 481.761719 C 50.050781 481.761719 48.742188 482.445312 47.941406 483.609375 C 47.136719 484.773438 46.960938 486.238281 47.464844 487.550781 L 49.605469 493.28125 L 47.464844 499.011719 C 46.988281 500.324219 47.167969 501.789062 47.941406 502.953125 C 48.742188 504.117188 50.050781 504.800781 51.449219 504.800781 L 65.425781 504.800781 C 67.773438 504.800781 69.675781 502.890625 69.675781 500.535156 L 69.675781 493.339844 L 71.609375 493.339844 C 74.433594 500.980469 79.429688 507.847656 86.238281 513.160156 C 96.558594 521.21875 108.839844 527.125 122.726562 530.707031 C 122.902344 530.769531 123.082031 530.769531 123.289062 530.769531 C 123.5 530.769531 123.675781 530.738281 123.855469 530.707031 C 137.742188 527.125 150.023438 521.246094 160.339844 513.160156 C 167.152344 507.847656 172.144531 500.980469 174.972656 493.339844 L 176.902344 493.339844 L 176.902344 500.535156 C 176.902344 502.890625 178.808594 504.800781 181.15625 504.800781 L 195.132812 504.800781 C 196.527344 504.800781 197.835938 504.117188 198.640625 502.953125 C 199.445312 501.789062 199.621094 500.324219 199.117188 499.011719 Z M 83.148438 406.90625 C 91.414062 404.070312 103.84375 401.921875 112.972656 400.609375 C 119.839844 399.621094 126.828125 399.621094 133.699219 400.609375 C 142.796875 401.921875 155.257812 404.101562 163.523438 406.90625 L 163.523438 462.332031 L 83.148438 462.332031 Z M 65.246094 500.292969 L 51.746094 500.292969 L 53.796875 494.773438 C 54.15625 493.816406 54.15625 492.742188 53.796875 491.757812 L 51.746094 486.238281 L 58.675781 486.238281 L 58.675781 489.222656 C 58.675781 491.460938 60.488281 493.28125 62.71875 493.28125 L 65.21875 493.28125 L 65.21875 500.292969 Z M 157.605469 509.578125 C 147.910156 517.15625 136.375 522.738281 123.320312 526.171875 C 110.265625 522.738281 98.730469 517.15625 89.035156 509.578125 C 83.355469 505.128906 79.074219 499.519531 76.457031 493.28125 L 82.789062 493.28125 C 85.199219 497.878906 88.648438 501.996094 92.960938 505.367188 C 101.40625 511.964844 111.457031 516.800781 122.816406 519.726562 C 122.992188 519.785156 123.171875 519.785156 123.378906 519.785156 C 123.589844 519.785156 123.765625 519.753906 123.945312 519.726562 C 135.304688 516.800781 145.324219 511.964844 153.800781 505.367188 C 158.109375 501.996094 161.558594 497.878906 163.96875 493.28125 L 170.300781 493.28125 C 167.566406 499.546875 163.285156 505.160156 157.605469 509.578125 Z M 110.773438 488.832031 C 109.554688 488.832031 108.542969 489.847656 108.542969 491.074219 C 108.542969 492.296875 109.554688 493.3125 110.773438 493.3125 L 158.734375 493.3125 C 156.714844 496.503906 154.125 499.398438 150.972656 501.875 C 143.152344 507.996094 133.847656 512.503906 123.320312 515.277344 C 112.792969 512.503906 103.488281 507.996094 95.667969 501.875 C 92.515625 499.429688 89.925781 496.535156 87.90625 493.3125 L 100.394531 493.3125 C 101.613281 493.3125 102.625 492.296875 102.625 491.074219 C 102.625 489.847656 101.613281 488.832031 100.394531 488.832031 L 63.136719 488.832031 L 63.136719 466.808594 L 183.476562 466.808594 L 183.476562 488.832031 Z M 192.84375 494.742188 L 194.894531 500.265625 L 181.394531 500.265625 L 181.394531 493.28125 L 183.890625 493.28125 C 186.121094 493.28125 187.9375 491.460938 187.9375 489.222656 L 187.9375 486.238281 L 194.863281 486.238281 L 192.8125 491.757812 C 192.457031 492.714844 192.457031 493.789062 192.84375 494.742188 Z M 192.84375 494.742188 "/></g><path style=" stroke:none;fill-rule:nonzero;fill:#000000;fill-opacity:1;" d="M 155.792969 437.675781 C 155.792969 437.675781 155.792969 424.785156 155.792969 424.785156 C 155.792969 424.785156 155.792969 424.785156 155.792969 424.753906 C 155.792969 424.722656 155.792969 424.695312 155.792969 424.664062 C 155.792969 424.605469 155.792969 424.574219 155.792969 424.515625 C 155.703125 423.46875 155.078125 422.574219 154.097656 422.15625 L 123.5 409.171875 C 122.21875 408.636719 120.734375 408.636719 119.453125 409.171875 L 88.886719 422.15625 C 87.847656 422.605469 87.160156 423.621094 87.160156 424.753906 C 87.160156 425.886719 87.847656 426.902344 88.886719 427.351562 L 100.15625 432.15625 L 100.15625 444.722656 C 100.15625 446.75 101.464844 448.542969 103.398438 449.136719 C 105.152344 449.675781 107.324219 450.363281 107.679688 450.453125 C 111.8125 451.675781 116.898438 452.421875 122.132812 452.421875 C 128.375 452.421875 134.859375 451.347656 140.238281 448.660156 C 141.785156 447.882812 142.765625 446.273438 142.765625 444.542969 L 142.765625 432.15625 L 151.300781 428.542969 L 151.300781 437.707031 C 149.160156 438.601562 147.644531 440.691406 147.644531 443.167969 L 147.644531 447.527344 C 147.644531 450.78125 150.289062 453.4375 153.53125 453.4375 C 156.773438 453.4375 159.417969 450.78125 159.417969 447.527344 L 159.417969 443.167969 C 159.449219 440.660156 157.933594 438.574219 155.792969 437.675781 Z M 138.335938 444.511719 C 138.335938 444.570312 138.308594 444.632812 138.277344 444.632812 C 129.503906 448.988281 116.925781 448.480469 108.957031 446.125 C 108.71875 446.0625 107.175781 445.585938 104.765625 444.839844 C 104.707031 444.808594 104.675781 444.75 104.675781 444.691406 L 104.675781 434.007812 L 119.515625 440.304688 C 120.167969 440.570312 120.851562 440.722656 121.535156 440.722656 C 122.21875 440.722656 122.902344 440.570312 123.558594 440.304688 L 138.394531 434.007812 Z M 123.378906 427.023438 L 143.390625 427.023438 L 121.773438 436.183594 C 121.597656 436.273438 121.386719 436.273438 121.210938 436.183594 L 94.238281 424.753906 L 121.210938 413.292969 C 121.386719 413.203125 121.597656 413.203125 121.773438 413.292969 L 143.539062 422.542969 L 123.351562 422.542969 C 122.132812 422.542969 121.121094 423.558594 121.121094 424.785156 C 121.148438 426.035156 122.132812 427.023438 123.378906 427.023438 Z M 154.988281 447.496094 C 154.988281 448.273438 154.363281 448.929688 153.5625 448.929688 C 152.757812 448.929688 152.132812 448.300781 152.132812 447.496094 L 152.132812 443.140625 C 152.132812 442.363281 152.757812 441.707031 153.5625 441.707031 C 154.335938 441.707031 154.988281 442.332031 154.988281 443.140625 Z M 154.988281 447.496094 "/></g></svg>