<svg xmlns="http://www.w3.org/2000/svg" xmlns:xlink="http://www.w3.org/1999/xlink" width="528" zoomAndPan="magnify" viewBox="0 0 396 611.999999" height="816" preserveAspectRatio="xMidYMid meet" version="1.2"><defs><clipPath id="829716a41d"><path d="M 49 137.039062 L 356.722656 137.039062 L 356.722656 465.539062 L 49 465.539062 Z M 49 137.039062 "/></clipPath></defs><g id="944e97192b"><rect x="0" width="396" y="0" height="611.999999" style="fill:#ffffff;fill-opacity:1;stroke:none;"/><rect x="0" width="396" y="0" height="611.999999" style="fill:#ffffff;fill-opacity:1;stroke:none;"/><g clip-rule="nonzero" clip-path="url(#829716a41d)"><path style=" stroke:none;fill-rule:nonzero;fill:#004aad;fill-opacity:1;" d="M 103.414062 216.902344 C 105.085938 216.902344 106.785156 216.703125 108.480469 216.292969 C 114.039062 214.941406 118.734375 211.503906 121.714844 206.613281 C 124.695312 201.726562 125.589844 195.972656 124.238281 190.414062 C 122.886719 184.847656 119.445312 180.136719 114.550781 177.164062 C 109.660156 174.1875 103.90625 173.296875 98.34375 174.65625 C 86.859375 177.4375 79.792969 189.050781 82.578125 200.535156 C 84.957031 210.320312 93.75 216.902344 103.414062 216.902344 Z M 100.753906 184.609375 C 100.753906 184.609375 100.757812 184.609375 100.765625 184.609375 C 101.648438 184.390625 102.546875 184.28125 103.4375 184.28125 C 105.457031 184.28125 107.449219 184.832031 109.21875 185.910156 C 111.773438 187.460938 113.570312 189.921875 114.273438 192.832031 C 115.730469 198.824219 112.042969 204.878906 106.050781 206.332031 C 100.046875 207.789062 93.984375 204.101562 92.53125 198.109375 C 91.082031 192.121094 94.765625 186.0625 100.753906 184.609375 Z M 243.011719 159.890625 C 241.011719 157.890625 241.011719 154.648438 243.011719 152.648438 C 245.011719 150.652344 248.253906 150.652344 250.253906 152.648438 L 258.808594 161.207031 C 260.808594 163.203125 260.808594 166.449219 258.808594 168.445312 C 257.808594 169.445312 256.496094 169.945312 255.1875 169.945312 C 253.878906 169.945312 252.566406 169.445312 251.566406 168.445312 Z M 291.132812 168.445312 C 289.132812 166.449219 289.132812 163.203125 291.132812 161.207031 L 299.6875 152.648438 C 301.6875 150.652344 304.929688 150.652344 306.929688 152.648438 C 308.929688 154.648438 308.929688 157.890625 306.929688 159.890625 L 298.375 168.445312 C 297.375 169.445312 296.0625 169.945312 294.753906 169.945312 C 293.445312 169.945312 292.132812 169.445312 291.132812 168.445312 Z M 269.851562 154.4375 L 269.851562 142.339844 C 269.851562 139.507812 272.144531 137.21875 274.972656 137.21875 C 277.796875 137.21875 280.089844 139.511719 280.089844 142.339844 L 280.089844 154.4375 C 280.089844 157.269531 277.796875 159.558594 274.972656 159.558594 C 272.144531 159.558594 269.851562 157.265625 269.851562 154.4375 Z M 356.050781 327.457031 C 355.695312 326.144531 354.839844 325.027344 353.660156 324.347656 L 313.511719 301.191406 C 311.714844 300.152344 309.472656 300.300781 307.832031 301.5625 C 306.191406 302.824219 305.46875 304.953125 306.007812 306.949219 L 309.523438 320.035156 L 296.054688 323.644531 L 296.054688 255.5625 C 296.054688 252.734375 293.761719 250.441406 290.933594 250.441406 L 259.015625 250.441406 C 256.179688 250.441406 253.894531 252.734375 253.894531 255.5625 L 253.894531 334.941406 L 235.019531 340 L 235.019531 284.445312 C 235.019531 281.65625 232.796875 279.382812 230.007812 279.324219 L 198.097656 278.613281 C 196.71875 278.582031 195.386719 279.105469 194.398438 280.074219 C 193.410156 281.042969 192.859375 282.355469 192.859375 283.734375 L 192.859375 351.289062 L 173.988281 356.347656 L 173.988281 313.089844 C 173.988281 311.296875 173.058594 309.710938 171.660156 308.804688 C 172.851562 305.566406 172.851562 302.0625 171.625 298.800781 L 161.78125 272.792969 C 160.210938 268.621094 156.878906 265.476562 152.640625 264.164062 L 133.863281 258.324219 L 131.097656 246.9375 L 132.941406 247.738281 C 137.140625 249.671875 142.054688 249.203125 145.796875 246.507812 L 166.496094 231.5625 C 169.265625 229.570312 171.097656 226.617188 171.648438 223.238281 C 172.199219 219.867188 171.40625 216.484375 169.40625 213.710938 C 167.414062 210.941406 164.457031 209.109375 161.082031 208.558594 C 157.710938 208.003906 154.328125 208.800781 151.546875 210.800781 L 136.722656 221.5 L 124.949219 216.394531 C 121.433594 214.867188 117.746094 214.554688 113.992188 215.445312 L 88.3125 220.957031 C 88.28125 220.964844 88.25 220.96875 88.21875 220.976562 C 87.347656 221.179688 86.589844 221.425781 85.757812 221.757812 L 61.445312 231.613281 C 57.15625 233.324219 54.121094 237.203125 53.496094 241.757812 L 49.660156 265.355469 C 48.5 272.488281 53.050781 278.746094 60.253906 279.921875 C 67.441406 281.085938 73.742188 276.59375 74.90625 269.46875 L 77.617188 252.730469 L 88.6875 248.390625 L 95 273.832031 C 96.195312 278.710938 99.15625 282.703125 103.167969 285.1875 L 102.84375 293.222656 L 85.90625 305.375 C 80.886719 308.980469 78.90625 315.261719 80.484375 320.902344 L 76.324219 320.902344 C 73.5 320.902344 71.203125 323.195312 71.203125 326.023438 L 71.203125 424.242188 L 57.125 428.019531 C 54.394531 428.75 52.773438 431.554688 53.503906 434.292969 L 60.789062 461.519531 C 61.144531 462.835938 62 463.957031 63.175781 464.636719 C 63.960938 465.089844 64.847656 465.320312 65.738281 465.320312 C 66.179688 465.320312 66.628906 465.261719 67.0625 465.148438 L 203.960938 428.472656 C 206.691406 427.742188 208.3125 424.933594 207.582031 422.199219 L 198.828125 389.507812 L 319.484375 357.171875 L 322.988281 370.265625 C 323.527344 372.265625 325.210938 373.746094 327.269531 374.019531 C 329.320312 374.289062 331.339844 373.296875 332.375 371.503906 L 355.554688 331.355469 C 356.214844 330.175781 356.402344 328.769531 356.050781 327.457031 Z M 264.148438 260.683594 L 285.820312 260.683594 L 285.820312 326.382812 L 264.148438 332.191406 Z M 203.105469 288.976562 L 224.78125 289.457031 L 224.78125 342.746094 L 203.105469 348.554688 Z M 163.746094 359.09375 L 156.679688 360.984375 C 153.949219 361.714844 152.320312 364.53125 153.058594 367.261719 L 161.8125 399.957031 L 142.472656 405.140625 L 142.472656 318.214844 L 163.742188 318.214844 L 163.742188 359.09375 Z M 97.214844 240.273438 C 96.863281 238.84375 95.910156 237.632812 94.59375 236.953125 C 93.859375 236.574219 93.050781 236.382812 92.242188 236.382812 C 91.609375 236.382812 90.972656 236.496094 90.371094 236.734375 L 71.152344 244.269531 C 69.46875 244.929688 68.257812 246.429688 67.96875 248.21875 L 64.789062 267.835938 C 64.46875 269.8125 63.035156 270.007812 61.894531 269.820312 C 60.746094 269.636719 59.445312 268.992188 59.765625 267.015625 L 63.617188 243.339844 C 63.621094 243.285156 63.636719 243.234375 63.640625 243.175781 C 63.765625 242.246094 64.359375 241.488281 65.261719 241.125 L 89.609375 231.253906 C 89.9375 231.121094 90.1875 231.042969 90.519531 230.960938 L 116.203125 225.449219 C 116.25 225.441406 116.285156 225.429688 116.332031 225.417969 C 117.964844 225.019531 119.375 225.136719 120.882812 225.789062 L 135.324219 232.054688 C 136.984375 232.773438 138.894531 232.570312 140.363281 231.511719 L 157.542969 219.113281 C 158.289062 218.578125 159.050781 218.605469 159.441406 218.667969 C 159.832031 218.734375 160.5625 218.949219 161.09375 219.6875 C 161.625 220.429688 161.601562 221.195312 161.535156 221.585938 C 161.472656 221.976562 161.253906 222.707031 160.511719 223.246094 L 139.804688 238.195312 C 138.914062 238.835938 137.890625 238.734375 137.222656 238.425781 C 137.179688 238.40625 137.125 238.382812 137.082031 238.363281 L 125.726562 233.441406 C 123.945312 232.664062 121.875 232.972656 120.386719 234.222656 C 118.902344 235.472656 118.253906 237.457031 118.710938 239.347656 L 124.59375 263.566406 C 125.015625 265.316406 126.328125 266.710938 128.046875 267.246094 L 149.597656 273.949219 C 150.796875 274.320312 151.738281 275.210938 152.1875 276.410156 L 162.03125 302.421875 C 162.414062 303.445312 162.382812 304.558594 161.925781 305.558594 C 161.480469 306.546875 160.675781 307.296875 159.652344 307.679688 C 158.625 308.066406 157.511719 308.035156 156.511719 307.578125 C 155.523438 307.128906 154.777344 306.328125 154.398438 305.316406 C 154.367188 305.234375 154.332031 305.144531 154.292969 305.058594 L 144.828125 283.386719 C 144.078125 281.675781 142.464844 280.511719 140.605469 280.335938 L 112.292969 277.722656 C 108.628906 277.382812 105.808594 274.953125 104.925781 271.378906 Z M 91.871094 313.710938 L 110.832031 300.105469 C 112.113281 299.183594 112.902344 297.730469 112.96875 296.152344 L 113.292969 288.109375 L 121.386719 288.859375 L 120.894531 300.992188 C 120.847656 302.242188 120.234375 303.386719 119.210938 304.125 L 96.613281 320.363281 C 96.261719 320.613281 95.890625 320.800781 95.5 320.925781 L 92.984375 320.925781 C 92.183594 320.671875 91.453125 320.171875 90.929688 319.441406 C 89.617188 317.59375 90.039062 315.03125 91.871094 313.710938 Z M 81.4375 331.167969 L 91.902344 331.167969 C 92.679688 331.296875 93.464844 331.367188 94.253906 331.367188 C 95.035156 331.367188 95.8125 331.296875 96.585938 331.167969 L 103.125 331.167969 L 103.125 415.6875 L 81.433594 421.5 L 81.433594 331.167969 Z M 111.613281 322.191406 L 125.195312 312.429688 C 128.800781 309.828125 130.96875 305.789062 131.128906 301.382812 L 131.601562 289.796875 L 136.660156 290.261719 L 144.386719 307.964844 L 137.34375 307.964844 C 134.511719 307.964844 132.222656 310.257812 132.222656 313.082031 L 132.222656 407.875 L 113.371094 412.933594 L 113.371094 326.042969 C 113.371094 324.507812 112.691406 323.132812 111.613281 322.191406 Z M 329.671875 355.660156 L 328.039062 349.566406 C 327.6875 348.253906 326.828125 347.136719 325.65625 346.457031 C 324.476562 345.777344 323.078125 345.59375 321.765625 345.945312 L 191.207031 380.933594 C 188.476562 381.664062 186.855469 384.480469 187.585938 387.210938 L 196.339844 419.898438 L 69.34375 453.921875 L 64.707031 436.585938 L 107.917969 425 L 109.570312 424.558594 C 109.570312 424.558594 109.578125 424.558594 109.578125 424.558594 L 138.394531 416.835938 C 138.574219 416.796875 138.75 416.75 138.921875 416.695312 L 169.40625 408.523438 C 172.136719 407.792969 173.757812 404.980469 173.027344 402.25 L 164.273438 369.558594 L 170.359375 367.933594 C 170.375 367.933594 170.378906 367.925781 170.394531 367.925781 L 199.160156 360.21875 C 199.210938 360.203125 199.261719 360.199219 199.3125 360.183594 L 231.226562 351.628906 C 231.257812 351.625 231.292969 351.609375 231.316406 351.597656 L 317.125 328.609375 C 318.4375 328.257812 319.558594 327.398438 320.238281 326.222656 C 320.917969 325.042969 321.105469 323.644531 320.753906 322.332031 L 319.117188 316.242188 L 344.105469 330.65625 Z M 237.515625 199.804688 L 255.847656 213.054688 L 248.816406 234.566406 C 248.125 236.683594 248.875 238.996094 250.675781 240.304688 C 252.476562 241.609375 254.914062 241.605469 256.707031 240.296875 L 274.976562 226.96875 L 293.265625 240.296875 C 294.164062 240.949219 295.226562 241.277344 296.285156 241.277344 C 297.34375 241.277344 298.398438 240.949219 299.296875 240.296875 C 301.097656 238.988281 301.847656 236.675781 301.15625 234.5625 L 294.125 213.050781 L 312.460938 199.796875 C 314.261719 198.496094 315.015625 196.175781 314.332031 194.066406 C 313.644531 191.953125 311.679688 190.523438 309.460938 190.523438 C 309.460938 190.523438 309.453125 190.523438 309.453125 190.523438 L 286.800781 190.5625 L 279.847656 169.03125 C 279.160156 166.914062 277.195312 165.480469 274.972656 165.480469 C 272.746094 165.480469 270.78125 166.914062 270.09375 169.03125 L 263.140625 190.5625 L 240.519531 190.53125 C 240.519531 190.53125 240.511719 190.53125 240.511719 190.53125 C 238.296875 190.53125 236.328125 191.960938 235.644531 194.074219 C 234.949219 196.1875 235.707031 198.503906 237.515625 199.804688 Z M 266.863281 200.808594 C 266.863281 200.808594 266.871094 200.808594 266.871094 200.808594 C 269.09375 200.808594 271.0625 199.375 271.746094 197.257812 L 274.976562 187.269531 L 278.207031 197.257812 C 278.894531 199.375 280.859375 200.808594 283.082031 200.808594 C 283.082031 200.808594 283.089844 200.808594 283.089844 200.808594 L 293.601562 200.796875 L 285.097656 206.941406 C 283.289062 208.25 282.53125 210.570312 283.226562 212.683594 L 286.492188 222.679688 L 277.996094 216.492188 C 277.097656 215.835938 276.035156 215.511719 274.976562 215.511719 C 273.917969 215.511719 272.855469 215.835938 271.957031 216.496094 L 263.488281 222.679688 L 266.75 212.691406 C 267.441406 210.574219 266.683594 208.25 264.878906 206.949219 L 256.375 200.800781 Z M 266.863281 200.808594 "/></g></g></svg>